<?xml version="1.0" encoding="UTF-8"?>
<svg width="649" height="775" version="1.1" viewBox="0 0 649 775" xmlns="http://www.w3.org/2000/svg" xmlns:cc="http://creativecommons.org/ns#" xmlns:dc="http://purl.org/dc/elements/1.1/" xmlns:rdf="http://www.w3.org/1999/02/22-rdf-syntax-ns#">
 <g fill="#edbe66" stroke="#000" stroke-width="1px">
  <path d="m74.875 566.75-17.25-4.75 6.75 15z"/>
  <path d="m166.5 585.79-10.501-16.169-21.75 15 20.625 16z"/>
  <path d="m116.75 600.5-4.1418-18.256-28.108 5.0061 10.5 24.75z"/>
 </g>
 <g transform="matrix(-.61735 .78669 .78669 .61735 5.5494 -415.99)" stroke="#634405">
  <g fill="#c79224">
   <rect x="695.59" y="586.77" width="2.9322" height="8.6282" fill-rule="evenodd" stroke-dashoffset="1.29" stroke-linecap="round"/>
   <g stroke-width="1px">
    <path d="m692.82 578.73c-0.46396-6.342 0.0908-16.033 0.0908-16.033-12.042 6.9555-3.523 27.64 1.7028 27.257 3.5424-0.25914-1.3297-4.8829-1.7936-11.225z"/>
    <path d="m700.14 578.47c0.0881-6.3583-1.0388-15.999-1.0388-15.999 12.433 6.2311 5.1515 27.383-0.0878 27.31-3.5515-0.0492 1.0385-4.953 1.1266-11.311z"/>
    <path d="m694.43 578.33c0-6.3589 1.2603-15.983 1.2603-15.983-12.518 6.0583-5.5302 27.309-0.29048 27.309 3.5518 0-0.96985-4.9669-0.96985-11.326z"/>
    <path d="m697.07 562.34c5.6712 8.1017 2.9976 26.898 0 26.898s-5.6712-18.796 0-26.898z"/>
   </g>
  </g>
  <path d="m697.08 561.93a0.40714 0.40714 0 0 0-0.34961 0.17187c-0.2791 0.39871-0.51661 0.8443-0.75586 1.2871 0.0262-0.21846 0.11524-0.99805 0.11524-0.99805a0.40714 0.40714 0 0 0-0.58203-0.41601c-0.83337 0.40333-1.5537 0.89534-2.2246 1.4219 0.0105-0.20804 0.0332-0.68164 0.0332-0.68164a0.40714 0.40714 0 0 0-0.60938-0.37304c-3.1042 1.793-4.9019 4.4938-5.7383 7.4883-0.83634 2.9944-0.72963 6.2821-0.0801 9.3281 0.64956 3.046 1.8412 5.8512 3.2227 7.8984 0.69072 1.0236 1.4286 1.8592 2.1875 2.4394 0.75893 0.58029 1.5533 0.91721 2.3438 0.85938 0.45108-0.033 0.80569-0.14991 1.0898-0.34766 0.42675-0.0484 0.75969-0.2169 1.0078-0.46679 0.10704 0.0379 0.195 0.0996 0.32422 0.0996 0.15925 0 0.30477-0.0427 0.44336-0.10156 0.0881 0.13616 0.19602 0.26165 0.33593 0.35547 0.30591 0.20515 0.69238 0.28641 1.166 0.29297 0.79247 0.011 1.5658-0.36999 2.2891-0.99414 0.72328-0.62415 1.4101-1.5018 2.0391-2.5644 1.2579-2.1254 2.2837-4.9971 2.752-8.0762 0.46823-3.0791 0.37919-6.3669-0.63282-9.3066-1.012-2.9397-2.967-5.5305-6.1719-7.1367a0.40714 0.40714 0 0 0-0.58594 0.4082s0.16197 1.8101 0.23633 2.5352c-0.42507-1.0711-0.92343-2.0745-1.5371-2.9512a0.40714 0.40714 0 0 0-0.31836-0.17187z" fill="none" stroke-width="1.7"/>
 </g>
 <g transform="matrix(-.69158 .48662 .47934 .68371 431.52 -215.72)" stroke-width="1.19">
  <g fill="#edbe66">
   <path d="m800.44 596.77v103.38"/>
   <path d="m769.66 648.46c0-32.083 30.786-51.689 30.786-51.689s30.786 19.606 30.786 51.689-30.786 51.689-30.786 51.689-30.786-19.606-30.786-51.689z"/>
   <path d="m774.11 627.39 26.33 26.979 25.823-26.979"/>
   <path d="m769.66 647.65 30.786 32.407 30.279-32.407"/>
   <path d="m817.12 612.75-16.679 17.338-17.186-17.338"/>
  </g>
  <g fill="none" stroke="#634405">
   <path d="m800.44 596.77v103.38" stroke-width="2.8561"/>
   <path d="m769.66 648.46c0-32.083 30.786-51.689 30.786-51.689s30.786 19.606 30.786 51.689-30.786 51.689-30.786 51.689-30.786-19.606-30.786-51.689z" stroke-width="4.5222"/>
   <g stroke-width="2.8561">
    <path d="m774.11 627.39 26.33 26.979 25.823-26.979"/>
    <path d="m769.66 647.65 30.786 32.407 30.279-32.407"/>
    <path d="m817.12 612.75-16.679 17.338-17.186-17.338"/>
   </g>
  </g>
 </g>
 <g transform="matrix(-.44643 -.41478 -.41517 .44601 802.04 209.06)" stroke-width="1.6411">
  <g fill="#edbe66">
   <path d="m800.44 596.77v103.38"/>
   <path d="m769.66 648.46c0-32.083 30.786-51.689 30.786-51.689s30.786 19.606 30.786 51.689-30.786 51.689-30.786 51.689-30.786-19.606-30.786-51.689z"/>
   <path d="m774.11 627.39 26.33 26.979 25.823-26.979"/>
   <path d="m769.66 647.65 30.786 32.407 30.279-32.407"/>
   <path d="m817.12 612.75-16.679 17.338-17.186-17.338"/>
  </g>
  <g fill="none" stroke="#634405">
   <path d="m800.44 596.77v103.38" stroke-width="3.9386"/>
   <path d="m769.66 648.46c0-32.083 30.786-51.689 30.786-51.689s30.786 19.606 30.786 51.689-30.786 51.689-30.786 51.689-30.786-19.606-30.786-51.689z" stroke-width="6.2361"/>
   <g stroke-width="3.9386">
    <path d="m774.11 627.39 26.33 26.979 25.823-26.979"/>
    <path d="m769.66 647.65 30.786 32.407 30.279-32.407"/>
    <path d="m817.12 612.75-16.679 17.338-17.186-17.338"/>
   </g>
  </g>
 </g>
 <g transform="matrix(-.55102 -.22972 -.23008 .55111 731.52 13.622)" stroke-width="1.6748">
  <g fill="#edbe66">
   <path d="m800.44 596.77v103.38"/>
   <path d="m769.66 648.46c0-32.083 30.786-51.689 30.786-51.689s30.786 19.606 30.786 51.689-30.786 51.689-30.786 51.689-30.786-19.606-30.786-51.689z"/>
   <path d="m774.11 627.39 26.33 26.979 25.823-26.979"/>
   <path d="m769.66 647.65 30.786 32.407 30.279-32.407"/>
   <path d="m817.12 612.75-16.679 17.338-17.186-17.338"/>
  </g>
  <g fill="none" stroke="#634405">
   <path d="m800.44 596.77v103.38" stroke-width="4.0194"/>
   <path d="m769.66 648.46c0-32.083 30.786-51.689 30.786-51.689s30.786 19.606 30.786 51.689-30.786 51.689-30.786 51.689-30.786-19.606-30.786-51.689z" stroke-width="6.3641"/>
   <g stroke-width="4.0194">
    <path d="m774.11 627.39 26.33 26.979 25.823-26.979"/>
    <path d="m769.66 647.65 30.786 32.407 30.279-32.407"/>
    <path d="m817.12 612.75-16.679 17.338-17.186-17.338"/>
   </g>
  </g>
 </g>
 <g transform="matrix(-.33907 -.49136 -.49171 .33895 746.02 380.69)" stroke-width="1.6748">
  <g fill="#edbe66">
   <path d="m800.44 596.77v103.38"/>
   <path d="m769.66 648.46c0-32.083 30.786-51.689 30.786-51.689s30.786 19.606 30.786 51.689-30.786 51.689-30.786 51.689-30.786-19.606-30.786-51.689z"/>
   <path d="m774.11 627.39 26.33 26.979 25.823-26.979"/>
   <path d="m769.66 647.65 30.786 32.407 30.279-32.407"/>
   <path d="m817.12 612.75-16.679 17.338-17.186-17.338"/>
  </g>
  <g fill="none" stroke="#634405">
   <path d="m800.44 596.77v103.38" stroke-width="4.0194"/>
   <path d="m769.66 648.46c0-32.083 30.786-51.689 30.786-51.689s30.786 19.606 30.786 51.689-30.786 51.689-30.786 51.689-30.786-19.606-30.786-51.689z" stroke-width="6.3641"/>
   <g stroke-width="4.0194">
    <path d="m774.11 627.39 26.33 26.979 25.823-26.979"/>
    <path d="m769.66 647.65 30.786 32.407 30.279-32.407"/>
    <path d="m817.12 612.75-16.679 17.338-17.186-17.338"/>
   </g>
  </g>
 </g>
 <g transform="matrix(-.63366 -.079698 -.080259 .63216 674.74 -135.17)" stroke-width="1.5675">
  <g fill="#edbe66">
   <path d="m800.44 596.77v103.38"/>
   <path d="m769.66 648.46c0-32.083 30.786-51.689 30.786-51.689s30.786 19.606 30.786 51.689-30.786 51.689-30.786 51.689-30.786-19.606-30.786-51.689z"/>
   <path d="m774.11 627.39 26.33 26.979 25.823-26.979"/>
   <path d="m769.66 647.65 30.786 32.407 30.279-32.407"/>
   <path d="m817.12 612.75-16.679 17.338-17.186-17.338"/>
  </g>
  <g fill="none" stroke="#634405">
   <path d="m800.44 596.77v103.38" stroke-width="3.7621"/>
   <path d="m769.66 648.46c0-32.083 30.786-51.689 30.786-51.689s30.786 19.606 30.786 51.689-30.786 51.689-30.786 51.689-30.786-19.606-30.786-51.689z" stroke-width="5.9566"/>
   <g stroke-width="3.7621">
    <path d="m774.11 627.39 26.33 26.979 25.823-26.979"/>
    <path d="m769.66 647.65 30.786 32.407 30.279-32.407"/>
    <path d="m817.12 612.75-16.679 17.338-17.186-17.338"/>
   </g>
  </g>
 </g>
 <g transform="matrix(-.61989 -.45473 -.45461 .61999 823.66 171.57)" stroke="#634405">
  <g fill="#c79224" stroke-width="1.6909">
   <rect x="695.59" y="586.77" width="2.9322" height="17.221" fill-rule="evenodd" stroke-dashoffset="1.29" stroke-linecap="round"/>
   <g>
    <path d="m692.82 578.73c-0.46396-6.342 0.0908-16.033 0.0908-16.033-12.042 6.9555-3.523 27.64 1.7028 27.257 3.5424-0.25914-1.3297-4.8829-1.7936-11.225z"/>
    <path d="m700.14 578.47c0.0881-6.3583-1.0388-15.999-1.0388-15.999 12.433 6.2311 5.1515 27.383-0.0878 27.31-3.5515-0.0492 1.0385-4.953 1.1266-11.311z"/>
    <path d="m694.43 578.33c0-6.3589 1.2603-15.983 1.2603-15.983-12.518 6.0583-5.5302 27.309-0.29048 27.309 3.5518 0-0.96985-4.9669-0.96985-11.326z"/>
    <path d="m697.07 562.34c5.6712 8.1017 2.9976 26.898 0 26.898s-5.6712-18.796 0-26.898z"/>
   </g>
  </g>
  <path d="m697.08 561.93a0.40714 0.40714 0 0 0-0.34961 0.17187c-0.2791 0.39871-0.51661 0.8443-0.75586 1.2871 0.0262-0.21846 0.11524-0.99805 0.11524-0.99805a0.40714 0.40714 0 0 0-0.58203-0.41601c-0.83337 0.40333-1.5537 0.89534-2.2246 1.4219 0.0105-0.20804 0.0332-0.68164 0.0332-0.68164a0.40714 0.40714 0 0 0-0.60938-0.37304c-3.1042 1.793-4.9019 4.4938-5.7383 7.4883-0.83634 2.9944-0.72963 6.2821-0.0801 9.3281 0.64956 3.046 1.8412 5.8512 3.2227 7.8984 0.69072 1.0236 1.4286 1.8592 2.1875 2.4394 0.75893 0.58029 1.5533 0.91721 2.3438 0.85938 0.45108-0.033 0.80569-0.14991 1.0898-0.34766 0.42675-0.0484 0.75969-0.2169 1.0078-0.46679 0.10704 0.0379 0.195 0.0996 0.32422 0.0996 0.15925 0 0.30477-0.0427 0.44336-0.10156 0.0881 0.13616 0.19602 0.26165 0.33593 0.35547 0.30591 0.20515 0.69238 0.28641 1.166 0.29297 0.79247 0.011 1.5658-0.36999 2.2891-0.99414 0.72328-0.62415 1.4101-1.5018 2.0391-2.5644 1.2579-2.1254 2.2837-4.9971 2.752-8.0762 0.46823-3.0791 0.37919-6.3669-0.63282-9.3066-1.012-2.9397-2.967-5.5305-6.1719-7.1367a0.40714 0.40714 0 0 0-0.58594 0.4082s0.16197 1.8101 0.23633 2.5352c-0.42507-1.0711-0.92343-2.0745-1.5371-2.9512a0.40714 0.40714 0 0 0-0.31836-0.17187z" fill="none" stroke-width="2.2112"/>
 </g>
 <g transform="matrix(-.41298 -.48716 -.48655 .4115 774.1 368.62)" stroke-width="1.5675">
  <g fill="#edbe66">
   <path d="m800.44 596.77v103.38"/>
   <path d="m769.66 648.46c0-32.083 30.786-51.689 30.786-51.689s30.786 19.606 30.786 51.689-30.786 51.689-30.786 51.689-30.786-19.606-30.786-51.689z"/>
   <path d="m774.11 627.39 26.33 26.979 25.823-26.979"/>
   <path d="m769.66 647.65 30.786 32.407 30.279-32.407"/>
   <path d="m817.12 612.75-16.679 17.338-17.186-17.338"/>
  </g>
  <g fill="none" stroke="#634405">
   <path d="m800.44 596.77v103.38" stroke-width="3.7621"/>
   <path d="m769.66 648.46c0-32.083 30.786-51.689 30.786-51.689s30.786 19.606 30.786 51.689-30.786 51.689-30.786 51.689-30.786-19.606-30.786-51.689z" stroke-width="5.9566"/>
   <g stroke-width="3.7621">
    <path d="m774.11 627.39 26.33 26.979 25.823-26.979"/>
    <path d="m769.66 647.65 30.786 32.407 30.279-32.407"/>
    <path d="m817.12 612.75-16.679 17.338-17.186-17.338"/>
   </g>
  </g>
 </g>
 <g transform="matrix(-.74671 .0079244 .0070822 .7408 682.18 -238.34)" stroke-width="1.3445">
  <g fill="#edbe66">
   <path d="m800.44 596.77v103.38"/>
   <path d="m769.66 648.46c0-32.083 30.786-51.689 30.786-51.689s30.786 19.606 30.786 51.689-30.786 51.689-30.786 51.689-30.786-19.606-30.786-51.689z"/>
   <path d="m774.11 627.39 26.33 26.979 25.823-26.979"/>
   <path d="m769.66 647.65 30.786 32.407 30.279-32.407"/>
   <path d="m817.12 612.75-16.679 17.338-17.186-17.338"/>
  </g>
  <g fill="none" stroke="#634405">
   <path d="m800.44 596.77v103.38" stroke-width="3.2267"/>
   <path d="m769.66 648.46c0-32.083 30.786-51.689 30.786-51.689s30.786 19.606 30.786 51.689-30.786 51.689-30.786 51.689-30.786-19.606-30.786-51.689z" stroke-width="5.109"/>
   <g stroke-width="3.2267">
    <path d="m774.11 627.39 26.33 26.979 25.823-26.979"/>
    <path d="m769.66 647.65 30.786 32.407 30.279-32.407"/>
    <path d="m817.12 612.75-16.679 17.338-17.186-17.338"/>
   </g>
  </g>
 </g>
 <g transform="matrix(-.57911 -.48641 -.48319 .57397 872.93 315.17)" stroke-width="1.3275">
  <g fill="#edbe66">
   <path d="m800.44 596.77v103.38"/>
   <path d="m769.66 648.46c0-32.083 30.786-51.689 30.786-51.689s30.786 19.606 30.786 51.689-30.786 51.689-30.786 51.689-30.786-19.606-30.786-51.689z"/>
   <path d="m774.11 627.39 26.33 26.979 25.823-26.979"/>
   <path d="m769.66 647.65 30.786 32.407 30.279-32.407"/>
   <path d="m817.12 612.75-16.679 17.338-17.186-17.338"/>
  </g>
  <g fill="none" stroke="#634405">
   <path d="m800.44 596.77v103.38" stroke-width="3.1861"/>
   <path d="m769.66 648.46c0-32.083 30.786-51.689 30.786-51.689s30.786 19.606 30.786 51.689-30.786 51.689-30.786 51.689-30.786-19.606-30.786-51.689z" stroke-width="5.0447"/>
   <g stroke-width="3.1861">
    <path d="m774.11 627.39 26.33 26.979 25.823-26.979"/>
    <path d="m769.66 647.65 30.786 32.407 30.279-32.407"/>
    <path d="m817.12 612.75-16.679 17.338-17.186-17.338"/>
   </g>
  </g>
 </g>
 <g transform="matrix(-.7418 .11939 .11759 .7362 584.22 -286.26)" stroke-width="1.3361">
  <g fill="#edbe66">
   <path d="m800.44 596.77v103.38"/>
   <path d="m769.66 648.46c0-32.083 30.786-51.689 30.786-51.689s30.786 19.606 30.786 51.689-30.786 51.689-30.786 51.689-30.786-19.606-30.786-51.689z"/>
   <path d="m774.11 627.39 26.33 26.979 25.823-26.979"/>
   <path d="m769.66 647.65 30.786 32.407 30.279-32.407"/>
   <path d="m817.12 612.75-16.679 17.338-17.186-17.338"/>
  </g>
  <g fill="none" stroke="#634405">
   <path d="m800.44 596.77v103.38" stroke-width="3.2067"/>
   <path d="m769.66 648.46c0-32.083 30.786-51.689 30.786-51.689s30.786 19.606 30.786 51.689-30.786 51.689-30.786 51.689-30.786-19.606-30.786-51.689z" stroke-width="5.0773"/>
   <g stroke-width="3.2067">
    <path d="m774.11 627.39 26.33 26.979 25.823-26.979"/>
    <path d="m769.66 647.65 30.786 32.407 30.279-32.407"/>
    <path d="m817.12 612.75-16.679 17.338-17.186-17.338"/>
   </g>
  </g>
 </g>
 <g transform="matrix(-.7763 .10836 .10675 .76938 597.61 -259.3)" stroke-width="1.2816">
  <g fill="#edbe66">
   <path d="m800.44 596.77v103.38"/>
   <path d="m769.66 648.46c0-32.083 30.786-51.689 30.786-51.689s30.786 19.606 30.786 51.689-30.786 51.689-30.786 51.689-30.786-19.606-30.786-51.689z"/>
   <path d="m774.11 627.39 26.33 26.979 25.823-26.979"/>
   <path d="m769.66 647.65 30.786 32.407 30.279-32.407"/>
   <path d="m817.12 612.75-16.679 17.338-17.186-17.338"/>
  </g>
  <g fill="none" stroke="#634405">
   <path d="m800.44 596.77v103.38" stroke-width="3.0758"/>
   <path d="m769.66 648.46c0-32.083 30.786-51.689 30.786-51.689s30.786 19.606 30.786 51.689-30.786 51.689-30.786 51.689-30.786-19.606-30.786-51.689z" stroke-width="4.8701"/>
   <g stroke-width="3.0758">
    <path d="m774.11 627.39 26.33 26.979 25.823-26.979"/>
    <path d="m769.66 647.65 30.786 32.407 30.279-32.407"/>
    <path d="m817.12 612.75-16.679 17.338-17.186-17.338"/>
   </g>
  </g>
 </g>
 <g transform="matrix(-.58371 -.52312 -.51888 .57801 881.46 391.8)" stroke-width="1.2816">
  <g fill="#edbe66">
   <path d="m800.44 596.77v103.38"/>
   <path d="m769.66 648.46c0-32.083 30.786-51.689 30.786-51.689s30.786 19.606 30.786 51.689-30.786 51.689-30.786 51.689-30.786-19.606-30.786-51.689z"/>
   <path d="m774.11 627.39 26.33 26.979 25.823-26.979"/>
   <path d="m769.66 647.65 30.786 32.407 30.279-32.407"/>
   <path d="m817.12 612.75-16.679 17.338-17.186-17.338"/>
  </g>
  <g fill="none" stroke="#634405">
   <path d="m800.44 596.77v103.38" stroke-width="3.0758"/>
   <path d="m769.66 648.46c0-32.083 30.786-51.689 30.786-51.689s30.786 19.606 30.786 51.689-30.786 51.689-30.786 51.689-30.786-19.606-30.786-51.689z" stroke-width="4.8701"/>
   <g stroke-width="3.0758">
    <path d="m774.11 627.39 26.33 26.979 25.823-26.979"/>
    <path d="m769.66 647.65 30.786 32.407 30.279-32.407"/>
    <path d="m817.12 612.75-16.679 17.338-17.186-17.338"/>
   </g>
  </g>
 </g>
 <g transform="matrix(-.77916 .16812 .16605 .77188 552.97 -264.57)" stroke-width="1.2605">
  <g fill="#edbe66">
   <path d="m800.44 596.77v103.38"/>
   <path d="m769.66 648.46c0-32.083 30.786-51.689 30.786-51.689s30.786 19.606 30.786 51.689-30.786 51.689-30.786 51.689-30.786-19.606-30.786-51.689z"/>
   <path d="m774.11 627.39 26.33 26.979 25.823-26.979"/>
   <path d="m769.66 647.65 30.786 32.407 30.279-32.407"/>
   <path d="m817.12 612.75-16.679 17.338-17.186-17.338"/>
  </g>
  <g fill="none" stroke="#634405">
   <path d="m800.44 596.77v103.38" stroke-width="3.0253"/>
   <path d="m769.66 648.46c0-32.083 30.786-51.689 30.786-51.689s30.786 19.606 30.786 51.689-30.786 51.689-30.786 51.689-30.786-19.606-30.786-51.689z" stroke-width="4.7901"/>
   <g stroke-width="3.0253">
    <path d="m774.11 627.39 26.33 26.979 25.823-26.979"/>
    <path d="m769.66 647.65 30.786 32.407 30.279-32.407"/>
    <path d="m817.12 612.75-16.679 17.338-17.186-17.338"/>
   </g>
  </g>
 </g>
 <g transform="matrix(-.81252 -.18753 -.18649 .80368 845.63 33.129)" stroke-width="1.2056">
  <g fill="#edbe66">
   <path d="m800.44 596.77v103.38"/>
   <path d="m769.66 648.46c0-32.083 30.786-51.689 30.786-51.689s30.786 19.606 30.786 51.689-30.786 51.689-30.786 51.689-30.786-19.606-30.786-51.689z"/>
   <path d="m774.11 627.39 26.33 26.979 25.823-26.979"/>
   <path d="m769.66 647.65 30.786 32.407 30.279-32.407"/>
   <path d="m817.12 612.75-16.679 17.338-17.186-17.338"/>
  </g>
  <g fill="none" stroke="#634405">
   <path d="m800.44 596.77v103.38" stroke-width="2.8935"/>
   <path d="m769.66 648.46c0-32.083 30.786-51.689 30.786-51.689s30.786 19.606 30.786 51.689-30.786 51.689-30.786 51.689-30.786-19.606-30.786-51.689z" stroke-width="4.5814"/>
   <g stroke-width="2.8935">
    <path d="m774.11 627.39 26.33 26.979 25.823-26.979"/>
    <path d="m769.66 647.65 30.786 32.407 30.279-32.407"/>
    <path d="m817.12 612.75-16.679 17.338-17.186-17.338"/>
   </g>
  </g>
 </g>
 <g transform="matrix(-.80264 .25156 .248 .79425 517.48 -310.04)" stroke-width="1.1953">
  <g fill="#edbe66">
   <path d="m800.44 596.77v103.38"/>
   <path d="m769.66 648.46c0-32.083 30.786-51.689 30.786-51.689s30.786 19.606 30.786 51.689-30.786 51.689-30.786 51.689-30.786-19.606-30.786-51.689z"/>
   <path d="m774.11 627.39 26.33 26.979 25.823-26.979"/>
   <path d="m769.66 647.65 30.786 32.407 30.279-32.407"/>
   <path d="m817.12 612.75-16.679 17.338-17.186-17.338"/>
  </g>
  <g fill="none" stroke="#634405">
   <path d="m800.44 596.77v103.38" stroke-width="2.8688"/>
   <path d="m769.66 648.46c0-32.083 30.786-51.689 30.786-51.689s30.786 19.606 30.786 51.689-30.786 51.689-30.786 51.689-30.786-19.606-30.786-51.689z" stroke-width="4.5422"/>
   <g stroke-width="2.8688">
    <path d="m774.11 627.39 26.33 26.979 25.823-26.979"/>
    <path d="m769.66 647.65 30.786 32.407 30.279-32.407"/>
    <path d="m817.12 612.75-16.679 17.338-17.186-17.338"/>
   </g>
  </g>
 </g>
 <g transform="matrix(-.81237 -.21812 -.21661 .80337 867.99 113.95)" stroke-width="1.1953">
  <g fill="#edbe66">
   <path d="m800.44 596.77v103.38"/>
   <path d="m769.66 648.46c0-32.083 30.786-51.689 30.786-51.689s30.786 19.606 30.786 51.689-30.786 51.689-30.786 51.689-30.786-19.606-30.786-51.689z"/>
   <path d="m774.11 627.39 26.33 26.979 25.823-26.979"/>
   <path d="m769.66 647.65 30.786 32.407 30.279-32.407"/>
   <path d="m817.12 612.75-16.679 17.338-17.186-17.338"/>
  </g>
  <g fill="none" stroke="#634405">
   <path d="m800.44 596.77v103.38" stroke-width="2.8688"/>
   <path d="m769.66 648.46c0-32.083 30.786-51.689 30.786-51.689s30.786 19.606 30.786 51.689-30.786 51.689-30.786 51.689-30.786-19.606-30.786-51.689z" stroke-width="4.5422"/>
   <g stroke-width="2.8688">
    <path d="m774.11 627.39 26.33 26.979 25.823-26.979"/>
    <path d="m769.66 647.65 30.786 32.407 30.279-32.407"/>
    <path d="m817.12 612.75-16.679 17.338-17.186-17.338"/>
   </g>
  </g>
 </g>
 <g transform="matrix(-1,0,0,1,650.25,0)">
  <path d="m587.64 424.49c-0.74141 4.7332-0.73377 8.8387 2.6283 12.806l2.0361-1.2295c-2.9028-3.4257-2.897-6.711-2.178-11.3z" color="#000000" color-rendering="auto" fill="#c79224" image-rendering="auto" shape-rendering="auto" stroke="#634405" stroke-width="1.4" style="font-feature-settings:normal;font-variant-alternates:normal;font-variant-caps:normal;font-variant-east-asian:normal;font-variant-ligatures:normal;font-variant-numeric:normal;font-variant-position:normal;font-variation-settings:normal;inline-size:0;isolation:auto;mix-blend-mode:normal;shape-margin:0;shape-padding:0;text-decoration-color:#000000;text-decoration-line:none;text-decoration-style:solid;text-indent:0;text-orientation:mixed;text-transform:none;white-space:normal"/>
  <path d="m591.38 395c-0.84536-0.0278-1.66 0.26028-2.4199 0.68359-0.66412-0.12348-1.2738 0.0852-1.6484 0.33594-0.81874 0.54797-1.2885 1.2596-1.9746 2.3809-0.98462 1.609-1.5416 3.537-1.9238 5.5586-0.14646-1.109-0.42835-2.3309-0.3711-3.2852 0.0769-1.2817-7e-3 -2.274-0.55468-3.1758-0.27383-0.4509-0.71998-0.87567-1.2734-1.0801s-1.1419-0.16852-1.6035-0.0215c-0.9233 0.29407-1.5001 0.9046-1.9707 1.6152s-0.80676 1.5713-0.92773 2.5391c-0.0944 0.75521-0.011 1.4725 0.125 2.4609 0.13596 0.98848 0.35344 2.1733 0.63867 3.4961 0.0287 0.1332 0.093 0.31337 0.12304 0.44922-0.38554-0.35532-0.7136-0.79282-1.2422-1.0078-0.46847-0.19054-1.097-0.29545-1.7188-0.10352-0.62171 0.19194-1.1018 0.64722-1.3926 1.1016-1.1406 1.7822-0.90132 3.9376-0.2168 5.9785 0.68453 2.0409 1.9174 4.0717 3.5293 5.6836 1.3761 1.376 3.3201 3.458 5.123 5.3027 0.90146 0.92236 1.7673 1.7865 2.5352 2.4922 0.7679 0.7057 1.341 1.2359 2.1074 1.6191 0.13738 0.0687 0.42799 0.0803 0.66016 0.12304 0.0231 0.1576 0.0536 0.35259 0.0723 0.49024a1.6264 1.6264 0 0 0 2.5898 1.0801c0.23399-0.17642 0.4669-0.55126 0.70117-0.76368a1.6264 1.6264 0 0 0 0.94532 0.20118c4.4925-0.41792 9.5838-3.5867 16.402-9.6875 1.5252-1.3647 2.4727-2.533 2.9609-3.7422s0.33904-2.6759-0.45117-3.5644c-0.65536-0.73694-1.4883-1.0127-2.3184-1.1504 1.135-2.0876 2.0355-4.0899 2.1992-5.8633 0.0666-0.72118 0.0876-1.2811-0.0703-1.9062-0.0789-0.31257-0.20852-0.67191-0.53711-1.0254-0.3286-0.35348-0.90917-0.61203-1.3887-0.62109-0.8543-0.0162-1.265 0.34333-1.6211 0.62891s-0.65439 0.60684-0.96094 0.9707c-0.36505 0.43331-0.73483 1.0087-1.1035 1.541-0.0439-0.85419-0.31888-1.6394-0.81836-2.3496 0.0526-1.2656-0.13803-2.5752-0.81641-3.752-0.79028-1.3708-2.3605-2.5117-4.2891-2.5117-1.3309 0-2.4536 0.38454-3.375 1.0293-0.90247-1.2831-2.2543-2.1021-3.7246-2.1504zm-3.4609 8.6797 0.91797 0.33008-0.91993 0.21679z" fill="#634405"/>
  <g fill="#c79224" stroke="#634405" stroke-width="1.4">
   <path d="m580.83 417.57c-3.8891-6.5407-4.7996-11.952-6.2138-9.7423-1.4142 2.2097 0.26517 6.8059 3.0936 9.6343 2.8284 2.8284 7.7515 8.3148 9.3425 9.1103 1.591 0.79549-6.2223-9.0023-6.2223-9.0023z"/>
   <path d="m595.47 404.82c-1.149-4.331-1.0607-7.0711 3.0052-7.0711 4.0659 0 4.4194 6.2756 2.2097 7.513-2.2097 1.2374-5.2149-0.44194-5.2149-0.44194z"/>
   <path d="m596.78 408.89c-0.0884-4.4194 0.63573-6.814 3.5525-6.7256 2.9168 0.0884 2.6128 3.3035 0.88389 5.8336-2.8133 4.1169-4.4364 0.89201-4.4364 0.89201z"/>
   <path d="m594.15 402.96c2.0329-5.8336-3.2704-7.955-5.4801-5.0381-2.2097 2.9168 0.88388 6.8943 1.8562 6.9827 0.97228 0.0884 3.6239-1.9445 3.6239-1.9445z"/>
   <path d="m588.49 406.76c0.70711-5.0381 1.8562-13.435-1.7678-7.513-3.6239 5.922-2.3865 17.589 1.0607 24.13 3.4471-0.97228 0.7071-16.617 0.7071-16.617z"/>
   <path d="m586.9 419.05c-4.2426-8.8388-5.7452-14.054-5.4801-18.473 0.26516-4.4194-3.5547-2.1109-3.5936 0.73928-0.10355 7.5784 6.5659 17.448 9.9228 23.801 2.778 5.2569-0.8491-6.0666-0.8491-6.0666z"/>
   <path d="m590.96 426.3c3.0052-4.5078 9.7227-12.109 11.137-14.672 1.4142-2.5633 6.8943-12.374 6.364-6.6291s-11.314 19.887-17.501 21.302z"/>
   <path d="m591.14 427.53c4.5962-2.3865 10.43-11.579 12.551-13.877 2.1213-2.2981 9.6343-1.4142 2.9168 4.5962-6.7175 6.0104-11.667 8.9272-15.468 9.2808z"/>
   <path d="m588.67 428.42c-1.1088-8.1746-5.118-26.536 5.3033-26.958 11.351-0.46049 0.092 22.891-5.3033 26.958z"/>
  </g>
 </g>
 <g transform="matrix(-.74338 .576 .56949 .73534 270.08 -478.84)" stroke-width="1.0692">
  <g fill="#edbe66">
   <path d="m800.44 596.77v103.38"/>
   <path d="m769.66 648.46c0-32.083 30.786-51.689 30.786-51.689s30.786 19.606 30.786 51.689-30.786 51.689-30.786 51.689-30.786-19.606-30.786-51.689z"/>
   <path d="m774.11 627.39 26.33 26.979 25.823-26.979"/>
   <path d="m769.66 647.65 30.786 32.407 30.279-32.407"/>
   <path d="m817.12 612.75-16.679 17.338-17.186-17.338"/>
  </g>
  <g fill="none" stroke="#634405">
   <path d="m800.44 596.77v103.38" stroke-width="2.5662"/>
   <path d="m769.66 648.46c0-32.083 30.786-51.689 30.786-51.689s30.786 19.606 30.786 51.689-30.786 51.689-30.786 51.689-30.786-19.606-30.786-51.689z" stroke-width="4.0632"/>
   <g stroke-width="2.5662">
    <path d="m774.11 627.39 26.33 26.979 25.823-26.979"/>
    <path d="m769.66 647.65 30.786 32.407 30.279-32.407"/>
    <path d="m817.12 612.75-16.679 17.338-17.186-17.338"/>
   </g>
  </g>
 </g>
 <g transform="matrix(-1.0197 .024189 .023739 1.0063 897.66 -161.08)" stroke-width=".98689">
  <g fill="#edbe66">
   <path d="m800.44 596.77v103.38"/>
   <path d="m769.66 648.46c0-32.083 30.786-51.689 30.786-51.689s30.786 19.606 30.786 51.689-30.786 51.689-30.786 51.689-30.786-19.606-30.786-51.689z"/>
   <path d="m774.11 627.39 26.33 26.979 25.823-26.979"/>
   <path d="m769.66 647.65 30.786 32.407 30.279-32.407"/>
   <path d="m817.12 612.75-16.679 17.338-17.186-17.338"/>
  </g>
  <g fill="none" stroke="#634405">
   <path d="m800.44 596.77v103.38" stroke-width="2.3685"/>
   <path d="m769.66 648.46c0-32.083 30.786-51.689 30.786-51.689s30.786 19.606 30.786 51.689-30.786 51.689-30.786 51.689-30.786-19.606-30.786-51.689z" stroke-width="3.7502"/>
   <g stroke-width="2.3685">
    <path d="m774.11 627.39 26.33 26.979 25.823-26.979"/>
    <path d="m769.66 647.65 30.786 32.407 30.279-32.407"/>
    <path d="m817.12 612.75-16.679 17.338-17.186-17.338"/>
   </g>
  </g>
 </g>
 <g transform="matrix(-.61735 .78669 .78669 .61735 27.089 -337.28)" stroke="#634405">
  <g fill="#c79224" stroke-width="1.3">
   <rect x="695.59" y="586.77" width="2.9322" height="8.6282" fill-rule="evenodd" stroke-dashoffset="1.29" stroke-linecap="round"/>
   <g>
    <path d="m692.82 578.73c-0.46396-6.342 0.0908-16.033 0.0908-16.033-12.042 6.9555-3.523 27.64 1.7028 27.257 3.5424-0.25914-1.3297-4.8829-1.7936-11.225z"/>
    <path d="m700.14 578.47c0.0881-6.3583-1.0388-15.999-1.0388-15.999 12.433 6.2311 5.1515 27.383-0.0878 27.31-3.5515-0.0492 1.0385-4.953 1.1266-11.311z"/>
    <path d="m694.43 578.33c0-6.3589 1.2603-15.983 1.2603-15.983-12.518 6.0583-5.5302 27.309-0.29048 27.309 3.5518 0-0.96985-4.9669-0.96985-11.326z"/>
    <path d="m697.07 562.34c5.6712 8.1017 2.9976 26.898 0 26.898s-5.6712-18.796 0-26.898z"/>
   </g>
  </g>
  <path d="m697.08 561.93a0.40714 0.40714 0 0 0-0.34961 0.17187c-0.2791 0.39871-0.51661 0.8443-0.75586 1.2871 0.0262-0.21846 0.11524-0.99805 0.11524-0.99805a0.40714 0.40714 0 0 0-0.58203-0.41601c-0.83337 0.40333-1.5537 0.89534-2.2246 1.4219 0.0105-0.20804 0.0332-0.68164 0.0332-0.68164a0.40714 0.40714 0 0 0-0.60938-0.37304c-3.1042 1.793-4.9019 4.4938-5.7383 7.4883-0.83634 2.9944-0.72963 6.2821-0.0801 9.3281 0.64956 3.046 1.8412 5.8512 3.2227 7.8984 0.69072 1.0236 1.4286 1.8592 2.1875 2.4394 0.75893 0.58029 1.5533 0.91721 2.3438 0.85938 0.45108-0.033 0.80569-0.14991 1.0898-0.34766 0.42675-0.0484 0.75969-0.2169 1.0078-0.46679 0.10704 0.0379 0.195 0.0996 0.32422 0.0996 0.15925 0 0.30477-0.0427 0.44336-0.10156 0.0881 0.13616 0.19602 0.26165 0.33593 0.35547 0.30591 0.20515 0.69238 0.28641 1.166 0.29297 0.79247 0.011 1.5658-0.36999 2.2891-0.99414 0.72328-0.62415 1.4101-1.5018 2.0391-2.5644 1.2579-2.1254 2.2837-4.9971 2.752-8.0762 0.46823-3.0791 0.37919-6.3669-0.63282-9.3066-1.012-2.9397-2.967-5.5305-6.1719-7.1367a0.40714 0.40714 0 0 0-0.58594 0.4082s0.16197 1.8101 0.23633 2.5352c-0.42507-1.0711-0.92343-2.0745-1.5371-2.9512a0.40714 0.40714 0 0 0-0.31836-0.17187z" fill="none" stroke-width="1.7"/>
 </g>
 <g transform="matrix(-.67784 .76215 .7521 .66907 119.64 -513.3)" stroke-width=".98689">
  <g fill="#edbe66">
   <path d="m800.44 596.77v103.38"/>
   <path d="m769.66 648.46c0-32.083 30.786-51.689 30.786-51.689s30.786 19.606 30.786 51.689-30.786 51.689-30.786 51.689-30.786-19.606-30.786-51.689z"/>
   <path d="m774.11 627.39 26.33 26.979 25.823-26.979"/>
   <path d="m769.66 647.65 30.786 32.407 30.279-32.407"/>
   <path d="m817.12 612.75-16.679 17.338-17.186-17.338"/>
  </g>
  <g fill="none" stroke="#634405">
   <path d="m800.44 596.77v103.38" stroke-width="2.3685"/>
   <path d="m769.66 648.46c0-32.083 30.786-51.689 30.786-51.689s30.786 19.606 30.786 51.689-30.786 51.689-30.786 51.689-30.786-19.606-30.786-51.689z" stroke-width="3.7502"/>
   <g stroke-width="2.3685">
    <path d="m774.11 627.39 26.33 26.979 25.823-26.979"/>
    <path d="m769.66 647.65 30.786 32.407 30.279-32.407"/>
    <path d="m817.12 612.75-16.679 17.338-17.186-17.338"/>
   </g>
  </g>
 </g>
 <g transform="matrix(-.7485 .62005 .6117 .73898 346.7 -355.07)" stroke-width="1.0356">
  <g fill="#edbe66">
   <path d="m800.44 596.77v103.38"/>
   <path d="m769.66 648.46c0-32.083 30.786-51.689 30.786-51.689s30.786 19.606 30.786 51.689-30.786 51.689-30.786 51.689-30.786-19.606-30.786-51.689z"/>
   <path d="m774.11 627.39 26.33 26.979 25.823-26.979"/>
   <path d="m769.66 647.65 30.786 32.407 30.279-32.407"/>
   <path d="m817.12 612.75-16.679 17.338-17.186-17.338"/>
  </g>
  <g fill="none" stroke="#634405">
   <path d="m800.44 596.77v103.38" stroke-width="2.4855"/>
   <path d="m769.66 648.46c0-32.083 30.786-51.689 30.786-51.689s30.786 19.606 30.786 51.689-30.786 51.689-30.786 51.689-30.786-19.606-30.786-51.689z" stroke-width="3.9353"/>
   <g stroke-width="2.4855">
    <path d="m774.11 627.39 26.33 26.979 25.823-26.979"/>
    <path d="m769.66 647.65 30.786 32.407 30.279-32.407"/>
    <path d="m817.12 612.75-16.679 17.338-17.186-17.338"/>
   </g>
  </g>
 </g>
 <g transform="matrix(-.7286 .49863 .49136 .72001 500.37 -244.81)" stroke-width="1.1399">
  <g fill="#edbe66">
   <path d="m800.44 596.77v103.38"/>
   <path d="m769.66 648.46c0-32.083 30.786-51.689 30.786-51.689s30.786 19.606 30.786 51.689-30.786 51.689-30.786 51.689-30.786-19.606-30.786-51.689z"/>
   <path d="m774.11 627.39 26.33 26.979 25.823-26.979"/>
   <path d="m769.66 647.65 30.786 32.407 30.279-32.407"/>
   <path d="m817.12 612.75-16.679 17.338-17.186-17.338"/>
  </g>
  <g fill="none" stroke="#634405">
   <path d="m800.44 596.77v103.38" stroke-width="2.7358"/>
   <path d="m769.66 648.46c0-32.083 30.786-51.689 30.786-51.689s30.786 19.606 30.786 51.689-30.786 51.689-30.786 51.689-30.786-19.606-30.786-51.689z" stroke-width="4.3316"/>
   <g stroke-width="2.7358">
    <path d="m774.11 627.39 26.33 26.979 25.823-26.979"/>
    <path d="m769.66 647.65 30.786 32.407 30.279-32.407"/>
    <path d="m817.12 612.75-16.679 17.338-17.186-17.338"/>
   </g>
  </g>
 </g>
 <g transform="matrix(-.61373 .63468 .62584 .60678 296.27 -247.55)" stroke-width="1.1399">
  <g fill="#edbe66">
   <path d="m800.44 596.77v103.38"/>
   <path d="m769.66 648.46c0-32.083 30.786-51.689 30.786-51.689s30.786 19.606 30.786 51.689-30.786 51.689-30.786 51.689-30.786-19.606-30.786-51.689z"/>
   <path d="m774.11 627.39 26.33 26.979 25.823-26.979"/>
   <path d="m769.66 647.65 30.786 32.407 30.279-32.407"/>
   <path d="m817.12 612.75-16.679 17.338-17.186-17.338"/>
  </g>
  <g fill="none" stroke="#634405">
   <path d="m800.44 596.77v103.38" stroke-width="2.7358"/>
   <path d="m769.66 648.46c0-32.083 30.786-51.689 30.786-51.689s30.786 19.606 30.786 51.689-30.786 51.689-30.786 51.689-30.786-19.606-30.786-51.689z" stroke-width="4.3316"/>
   <g stroke-width="2.7358">
    <path d="m774.11 627.39 26.33 26.979 25.823-26.979"/>
    <path d="m769.66 647.65 30.786 32.407 30.279-32.407"/>
    <path d="m817.12 612.75-16.679 17.338-17.186-17.338"/>
   </g>
  </g>
 </g>
 <g transform="matrix(-.98553 .24367 .24011 .97008 903.35 -176.35)" stroke-width=".99279">
  <g fill="#edbe66">
   <path d="m800.44 596.77v103.38"/>
   <path d="m769.66 648.46c0-32.083 30.786-51.689 30.786-51.689s30.786 19.606 30.786 51.689-30.786 51.689-30.786 51.689-30.786-19.606-30.786-51.689z"/>
   <path d="m774.11 627.39 26.33 26.979 25.823-26.979"/>
   <path d="m769.66 647.65 30.786 32.407 30.279-32.407"/>
   <path d="m817.12 612.75-16.679 17.338-17.186-17.338"/>
  </g>
  <g fill="none" stroke="#634405">
   <path d="m800.44 596.77v103.38" stroke-width="2.3827"/>
   <path d="m769.66 648.46c0-32.083 30.786-51.689 30.786-51.689s30.786 19.606 30.786 51.689-30.786 51.689-30.786 51.689-30.786-19.606-30.786-51.689z" stroke-width="3.7726"/>
   <g stroke-width="2.3827">
    <path d="m774.11 627.39 26.33 26.979 25.823-26.979"/>
    <path d="m769.66 647.65 30.786 32.407 30.279-32.407"/>
    <path d="m817.12 612.75-16.679 17.338-17.186-17.338"/>
   </g>
  </g>
 </g>
 <path d="m119.64 680.57h103.38" fill="#edbe66"/>
 <g transform="matrix(-1 0 0 1 880.88 17.607)">
  <path d="m688.66 577.64s-2.7733 6.0885 0.40625 11.596c0.94862 1.643 2.2091 2.8452 3.5078 3.7344-1.4196-0.6803-3.0908-1.1699-4.9883-1.1699-6.3592 0-10.246 5.4453-10.246 5.4453s3.887 5.4453 10.246 5.4453c1.9003 0 3.5732-0.49196 4.9941-1.1738-1.301 0.88963-2.5635 2.0945-3.5137 3.7402-3.1796 5.5072-0.40625 11.594-0.40625 11.594s6.6583-0.64126 9.8379-6.1484c0.94989-1.6453 1.3604-3.341 1.4805-4.9121 0.12008 1.5711 0.53253 3.2669 1.4824 4.9121 3.1796 5.5072 9.8379 6.1484 9.8379 6.1484s2.7714-6.0866-0.4082-11.594c-0.94764-1.6414-2.2046-2.8435-3.502-3.7324 1.4184 0.67892 3.0893 1.166 4.9844 1.166 6.3592 0 10.244-5.4453 10.244-5.4453s-3.885-5.4453-10.244-5.4453c-1.8961 0-3.5674 0.49042-4.9863 1.1699 1.2982-0.88912 2.5557-2.092 3.5039-3.7344 3.1796-5.5072 0.4082-11.596 0.4082-11.596s-6.6583 0.64321-9.8379 6.1504c-0.94989 1.6453-1.3623 3.339-1.4824 4.9102-0.12008-1.5711-0.53058-3.2649-1.4805-4.9102-3.1796-5.5072-9.8379-6.1504-9.8379-6.1504zm11.318 13.201c0.20852 2.6406 1.0742 4.5449 1.0742 4.5449s2.0838-0.20434 4.4766-1.3457c-2.1845 1.5014-3.4023 3.2051-3.4023 3.2051s1.2189 1.7034 3.4043 3.2051c-2.3934-1.1421-4.4785-1.3438-4.4785-1.3438s-0.86571 1.9043-1.0742 4.5449c-0.20855-2.6405-1.0742-4.5449-1.0742-4.5449s-2.0851 0.20169-4.4785 1.3438c2.1854-1.5016 3.4043-3.2051 3.4043-3.2051s-1.2157-1.7008-3.3965-3.2012c2.3903 1.139 4.4707 1.3418 4.4707 1.3418s0.86568-1.9044 1.0742-4.5449z" fill="#c79224"/>
  <g fill="none" stroke="#634405" stroke-width="2.4">
   <path d="m712.37 591.8c6.3592 0 10.245 5.445 10.245 5.445s-3.8862 5.445-10.245 5.445-10.245-5.445-10.245-5.445 3.8862-5.445 10.245-5.445z"/>
   <path d="m710.89 605.26c3.1796 5.5072 0.40713 11.595 0.40713 11.595s-6.6586-0.643-9.8382-6.1502c-3.1796-5.5072-0.40713-11.595-0.40713-11.595s6.6586 0.643 9.8382 6.1502z"/>
   <path d="m698.49 610.7c-3.1796 5.5072-9.8382 6.1502-9.8382 6.1502s-2.7724-6.088 0.40714-11.595c3.1796-5.5072 9.8382-6.1502 9.8382-6.1502s2.7724 6.088-0.40712 11.595z"/>
   <path d="m687.58 602.69c-6.3591-1e-5 -10.245-5.445-10.245-5.445s3.8862-5.445 10.245-5.445c6.3591 0 10.245 5.445 10.245 5.445s-3.8861 5.445-10.245 5.445z"/>
   <path d="m689.06 589.23c-3.1796-5.5072-0.40713-11.595-0.40713-11.595s6.6586 0.643 9.8382 6.1502c3.1796 5.5072 0.40713 11.595 0.40713 11.595s-6.6586-0.64298-9.8382-6.1502z"/>
   <path d="m701.46 583.79c3.1796-5.5072 9.8382-6.1502 9.8382-6.1502s2.7724 6.088-0.40714 11.595c-3.1796 5.5072-9.8382 6.1502-9.8382 6.1502s-2.7724-6.088 0.40713-11.595z"/>
  </g>
  <circle cx="699.97" cy="597.24" r="5.7287" fill="#edbe66" fill-rule="evenodd" stroke="#634405" stroke-dashoffset="1.29" stroke-linecap="round" stroke-width="2.4"/>
 </g>
 <g transform="matrix(-.95841 .2854 .2854 .95841 742.64 -132.86)">
  <path d="m688.66 577.64s-2.7733 6.0885 0.40625 11.596c0.94862 1.643 2.2091 2.8452 3.5078 3.7344-1.4196-0.6803-3.0908-1.1699-4.9883-1.1699-6.3592 0-10.246 5.4453-10.246 5.4453s3.887 5.4453 10.246 5.4453c1.9003 0 3.5732-0.49196 4.9941-1.1738-1.301 0.88963-2.5635 2.0945-3.5137 3.7402-3.1796 5.5072-0.40625 11.594-0.40625 11.594s6.6583-0.64126 9.8379-6.1484c0.94989-1.6453 1.3604-3.341 1.4805-4.9121 0.12008 1.5711 0.53253 3.2669 1.4824 4.9121 3.1796 5.5072 9.8379 6.1484 9.8379 6.1484s2.7714-6.0866-0.4082-11.594c-0.94764-1.6414-2.2046-2.8435-3.502-3.7324 1.4184 0.67892 3.0893 1.166 4.9844 1.166 6.3592 0 10.244-5.4453 10.244-5.4453s-3.885-5.4453-10.244-5.4453c-1.8961 0-3.5674 0.49042-4.9863 1.1699 1.2982-0.88912 2.5557-2.092 3.5039-3.7344 3.1796-5.5072 0.4082-11.596 0.4082-11.596s-6.6583 0.64321-9.8379 6.1504c-0.94989 1.6453-1.3623 3.339-1.4824 4.9102-0.12008-1.5711-0.53058-3.2649-1.4805-4.9102-3.1796-5.5072-9.8379-6.1504-9.8379-6.1504zm11.318 13.201c0.20852 2.6406 1.0742 4.5449 1.0742 4.5449s2.0838-0.20434 4.4766-1.3457c-2.1845 1.5014-3.4023 3.2051-3.4023 3.2051s1.2189 1.7034 3.4043 3.2051c-2.3934-1.1421-4.4785-1.3438-4.4785-1.3438s-0.86571 1.9043-1.0742 4.5449c-0.20855-2.6405-1.0742-4.5449-1.0742-4.5449s-2.0851 0.20169-4.4785 1.3438c2.1854-1.5016 3.4043-3.2051 3.4043-3.2051s-1.2157-1.7008-3.3965-3.2012c2.3903 1.139 4.4707 1.3418 4.4707 1.3418s0.86568-1.9044 1.0742-4.5449z" fill="#c79224"/>
  <g fill="none" stroke="#634405" stroke-width="2.4">
   <path d="m712.37 591.8c6.3592 0 10.245 5.445 10.245 5.445s-3.8862 5.445-10.245 5.445-10.245-5.445-10.245-5.445 3.8862-5.445 10.245-5.445z"/>
   <path d="m710.89 605.26c3.1796 5.5072 0.40713 11.595 0.40713 11.595s-6.6586-0.643-9.8382-6.1502c-3.1796-5.5072-0.40713-11.595-0.40713-11.595s6.6586 0.643 9.8382 6.1502z"/>
   <path d="m698.49 610.7c-3.1796 5.5072-9.8382 6.1502-9.8382 6.1502s-2.7724-6.088 0.40714-11.595c3.1796-5.5072 9.8382-6.1502 9.8382-6.1502s2.7724 6.088-0.40712 11.595z"/>
   <path d="m687.58 602.69c-6.3591-1e-5 -10.245-5.445-10.245-5.445s3.8862-5.445 10.245-5.445c6.3591 0 10.245 5.445 10.245 5.445s-3.8861 5.445-10.245 5.445z"/>
   <path d="m689.06 589.23c-3.1796-5.5072-0.40713-11.595-0.40713-11.595s6.6586 0.643 9.8382 6.1502c3.1796 5.5072 0.40713 11.595 0.40713 11.595s-6.6586-0.64298-9.8382-6.1502z"/>
   <path d="m701.46 583.79c3.1796-5.5072 9.8382-6.1502 9.8382-6.1502s2.7724 6.088-0.40714 11.595c-3.1796 5.5072-9.8382 6.1502-9.8382 6.1502s-2.7724-6.088 0.40713-11.595z"/>
  </g>
  <circle cx="699.97" cy="597.24" r="5.7287" fill="#edbe66" fill-rule="evenodd" stroke="#634405" stroke-dashoffset="1.29" stroke-linecap="round" stroke-width="2.4"/>
 </g>
 <g transform="matrix(-.95841 .2854 .2854 .95841 576.45 -260.06)">
  <path d="m688.66 577.64s-2.7733 6.0885 0.40625 11.596c0.94862 1.643 2.2091 2.8452 3.5078 3.7344-1.4196-0.6803-3.0908-1.1699-4.9883-1.1699-6.3592 0-10.246 5.4453-10.246 5.4453s3.887 5.4453 10.246 5.4453c1.9003 0 3.5732-0.49196 4.9941-1.1738-1.301 0.88963-2.5635 2.0945-3.5137 3.7402-3.1796 5.5072-0.40625 11.594-0.40625 11.594s6.6583-0.64126 9.8379-6.1484c0.94989-1.6453 1.3604-3.341 1.4805-4.9121 0.12008 1.5711 0.53253 3.2669 1.4824 4.9121 3.1796 5.5072 9.8379 6.1484 9.8379 6.1484s2.7714-6.0866-0.4082-11.594c-0.94764-1.6414-2.2046-2.8435-3.502-3.7324 1.4184 0.67892 3.0893 1.166 4.9844 1.166 6.3592 0 10.244-5.4453 10.244-5.4453s-3.885-5.4453-10.244-5.4453c-1.8961 0-3.5674 0.49042-4.9863 1.1699 1.2982-0.88912 2.5557-2.092 3.5039-3.7344 3.1796-5.5072 0.4082-11.596 0.4082-11.596s-6.6583 0.64321-9.8379 6.1504c-0.94989 1.6453-1.3623 3.339-1.4824 4.9102-0.12008-1.5711-0.53058-3.2649-1.4805-4.9102-3.1796-5.5072-9.8379-6.1504-9.8379-6.1504zm11.318 13.201c0.20852 2.6406 1.0742 4.5449 1.0742 4.5449s2.0838-0.20434 4.4766-1.3457c-2.1845 1.5014-3.4023 3.2051-3.4023 3.2051s1.2189 1.7034 3.4043 3.2051c-2.3934-1.1421-4.4785-1.3438-4.4785-1.3438s-0.86571 1.9043-1.0742 4.5449c-0.20855-2.6405-1.0742-4.5449-1.0742-4.5449s-2.0851 0.20169-4.4785 1.3438c2.1854-1.5016 3.4043-3.2051 3.4043-3.2051s-1.2157-1.7008-3.3965-3.2012c2.3903 1.139 4.4707 1.3418 4.4707 1.3418s0.86568-1.9044 1.0742-4.5449z" fill="#c79224"/>
  <g fill="none" stroke="#634405" stroke-width="2.4">
   <path d="m712.37 591.8c6.3592 0 10.245 5.445 10.245 5.445s-3.8862 5.445-10.245 5.445-10.245-5.445-10.245-5.445 3.8862-5.445 10.245-5.445z"/>
   <path d="m710.89 605.26c3.1796 5.5072 0.40713 11.595 0.40713 11.595s-6.6586-0.643-9.8382-6.1502c-3.1796-5.5072-0.40713-11.595-0.40713-11.595s6.6586 0.643 9.8382 6.1502z"/>
   <path d="m698.49 610.7c-3.1796 5.5072-9.8382 6.1502-9.8382 6.1502s-2.7724-6.088 0.40714-11.595c3.1796-5.5072 9.8382-6.1502 9.8382-6.1502s2.7724 6.088-0.40712 11.595z"/>
   <path d="m687.58 602.69c-6.3591-1e-5 -10.245-5.445-10.245-5.445s3.8862-5.445 10.245-5.445c6.3591 0 10.245 5.445 10.245 5.445s-3.8861 5.445-10.245 5.445z"/>
   <path d="m689.06 589.23c-3.1796-5.5072-0.40713-11.595-0.40713-11.595s6.6586 0.643 9.8382 6.1502c3.1796 5.5072 0.40713 11.595 0.40713 11.595s-6.6586-0.64298-9.8382-6.1502z"/>
   <path d="m701.46 583.79c3.1796-5.5072 9.8382-6.1502 9.8382-6.1502s2.7724 6.088-0.40714 11.595c-3.1796 5.5072-9.8382 6.1502-9.8382 6.1502s-2.7724-6.088 0.40713-11.595z"/>
  </g>
  <circle cx="699.97" cy="597.24" r="5.7287" fill="#edbe66" fill-rule="evenodd" stroke="#634405" stroke-dashoffset="1.29" stroke-linecap="round" stroke-width="2.4"/>
 </g>
 <g transform="matrix(-1,0,0,1,650.25,0)" fill="#c79224" stroke="#634405" stroke-width="1.3">
  <path d="m557.69 292.57c-1.8332-1.1458-4.7549-7.1609-1.0312-5.786 3.7237 1.3749 1.8332 5.6714 1.0312 5.786z"/>
  <path d="m557.15 290.85c-2.8356-5.2661-0.081-12.963 7.4535-7.2105 7.5346 5.7522-5.8332 8.5067-7.4535 7.2105z"/>
  <path d="m572.14 283.89c-3.2407-5.3471-7.2915-6.2383-8.7498-3.4837-1.4583 2.7546 3.2407 8.5878 3.2407 8.5878l7.1295-1.7014z"/>
  <path d="m578.01 313.45c-0.80202-10.369 0.80202-22.743-2.7498-28.472-3.5518-5.7287-8.5931-8.0202-6.5308-4.2393 2.0623 3.781 7.4474 14.895 7.1036 19.707-0.34372 4.8121 2.1769 13.004 2.1769 13.004z"/>
  <path d="m562.83 290.94c-3.6458-3.4837-4.9247-3.3159-6.059-1.6956-0.8004 1.1434 0.49931 4.9492 1.9818 6.6217 2.1147 2.3857 4.5122 3.9006 5.3849 4.9914 1.9444 2.4305 3.2292 2.9641 4.7685 4.9085 1.5393 1.9444-6.0762-14.826-6.0762-14.826z"/>
  <path d="m576.4 314.02 1.604-0.57287s-1.604-10.025-1.4895-13.119c0.11457-3.0935-4.1247-16.04-10.312-16.04-6.187 0-6.6453 8.364-3.4372 13.176s4.9198 9.3483 7.7554 11.131c2.8356 1.7824 5.1956 4.2074 5.879 5.4254z"/>
  <path d="m579.6 317.91-1.604 0.57287-1.5933-4.4612 1.604-0.57287z"/>
 </g>
 <g transform="matrix(-.81401 .58084 .58084 .81401 430.24 -137.07)">
  <path transform="matrix(.98285 0 0 .9828 5.577 .80877)" d="m325.12 10.96 16.174 50.153 52.696-0.11518-42.7 30.881 16.394 50.081-42.564-31.067-42.564 31.067 16.394-50.081-42.7-30.881 52.696 0.11518z" fill="#edbe66" fill-rule="evenodd"/>
  <g fill="#c79224">
   <path d="m325.12 11.58v71.795l15.897-22.505z"/>
   <path d="m392.81 60.757-67.689 22.618 25.722 7.732z"/>
   <path d="m366.96 140.33-41.834-56.952v26.419z"/>
   <path d="m299.4 91.107-16.112 49.22 41.834-56.952z"/>
   <path d="m257.44 60.757 67.689 22.618-15.897-22.505z"/>
  </g>
  <path transform="matrix(.98285 0 0 .9828 5.577 .80877)" d="m325.12 10.96 16.174 50.153 52.696-0.11518-42.7 30.881 16.394 50.081-42.564-31.067-42.564 31.067 16.394-50.081-42.7-30.881 52.696 0.11518z" fill="none" stroke="#634405" stroke-dashoffset="1.29" stroke-linecap="round" stroke-linejoin="round" stroke-width="3.8664"/>
 </g>
 <path d="m145.88 695.25-25.625-25.25h-44l-11.625-48.375 21.25-29 83.375 46.5 32 49.625z" fill="#0a2f4c" stroke="#916823" stroke-linejoin="round" stroke-width="4"/>
 <g fill="none" stroke="#916823" stroke-width="2.8">
  <g>
   <path d="m169.25 639.12-23.375 56.125"/>
   <path d="m76.25 670 20.125-36.125-10.5-41.25"/>
   <path d="m96.375 633.88 35.75 1.375"/>
  </g>
  <path d="m120.25 670 11.875-34.75-18.625-19.75-11.25 18.625" stroke-linejoin="round"/>
 </g>
 <g fill="#edbe66">
  <path d="m297.12 745.38c-15.125 0-56 18.625-56 18.625-12.5-3.25-27.875-11.5-30.5-16 39.125-16.25 65.677-25.337 114.5-25.337s75.375 9.0869 114.5 25.337c-2.625 4.5-18 12.75-30.5 16 0 0-40.875-18.625-56-18.625h-28z" stroke="#634405" stroke-linejoin="round" stroke-width="3.4"/>
  <path d="m313.88 755.38c-3.625 0-6.25-2.5-6.25-9.125v-28.625h35v28.625c0 6.625-2.625 9.125-6.25 9.125h-11.25z" stroke="#634405" stroke-width="3.4"/>
  <g stroke="#000" stroke-width="1px">
   <path d="m575.38 566.75 17.25-4.75-6.75 15z"/>
   <path d="m483.75 585.79 10.501-16.169 21.75 15-20.625 16z"/>
   <path d="m533.5 600.5 4.1418-18.256 28.108 5.0061-10.5 24.75z"/>
  </g>
 </g>
 <g transform="rotate(51.877 749.96 454.72)" stroke="#634405">
  <g fill="#c79224">
   <rect x="695.59" y="586.77" width="2.9322" height="8.6282" fill-rule="evenodd" stroke-dashoffset="1.29" stroke-linecap="round"/>
   <g stroke-width="1px">
    <path d="m692.82 578.73c-0.46396-6.342 0.0908-16.033 0.0908-16.033-12.042 6.9555-3.523 27.64 1.7028 27.257 3.5424-0.25914-1.3297-4.8829-1.7936-11.225z"/>
    <path d="m700.14 578.47c0.0881-6.3583-1.0388-15.999-1.0388-15.999 12.433 6.2311 5.1515 27.383-0.0878 27.31-3.5515-0.0492 1.0385-4.953 1.1266-11.311z"/>
    <path d="m694.43 578.33c0-6.3589 1.2603-15.983 1.2603-15.983-12.518 6.0583-5.5302 27.309-0.29048 27.309 3.5518 0-0.96985-4.9669-0.96985-11.326z"/>
    <path d="m697.07 562.34c5.6712 8.1017 2.9976 26.898 0 26.898s-5.6712-18.796 0-26.898z"/>
   </g>
  </g>
  <path d="m697.08 561.93a0.40714 0.40714 0 0 0-0.34961 0.17187c-0.2791 0.39871-0.51661 0.8443-0.75586 1.2871 0.0262-0.21846 0.11524-0.99805 0.11524-0.99805a0.40714 0.40714 0 0 0-0.58203-0.41601c-0.83337 0.40333-1.5537 0.89534-2.2246 1.4219 0.0105-0.20804 0.0332-0.68164 0.0332-0.68164a0.40714 0.40714 0 0 0-0.60938-0.37304c-3.1042 1.793-4.9019 4.4938-5.7383 7.4883-0.83634 2.9944-0.72963 6.2821-0.0801 9.3281 0.64956 3.046 1.8412 5.8512 3.2227 7.8984 0.69072 1.0236 1.4286 1.8592 2.1875 2.4394 0.75893 0.58029 1.5533 0.91721 2.3438 0.85938 0.45108-0.033 0.80569-0.14991 1.0898-0.34766 0.42675-0.0484 0.75969-0.2169 1.0078-0.46679 0.10704 0.0379 0.195 0.0996 0.32422 0.0996 0.15925 0 0.30477-0.0427 0.44336-0.10156 0.0881 0.13616 0.19602 0.26165 0.33593 0.35547 0.30591 0.20515 0.69238 0.28641 1.166 0.29297 0.79247 0.011 1.5658-0.36999 2.2891-0.99414 0.72328-0.62415 1.4101-1.5018 2.0391-2.5644 1.2579-2.1254 2.2837-4.9971 2.752-8.0762 0.46823-3.0791 0.37919-6.3669-0.63282-9.3066-1.012-2.9397-2.967-5.5305-6.1719-7.1367a0.40714 0.40714 0 0 0-0.58594 0.4082s0.16197 1.8101 0.23633 2.5352c-0.42507-1.0711-0.92343-2.0745-1.5371-2.9512a0.40714 0.40714 0 0 0-0.31836-0.17187z" fill="none" stroke-width="1.7"/>
 </g>
 <g transform="matrix(.69158 .48662 -.47934 .68371 218.73 -215.72)" stroke-width="1.19">
  <g fill="#edbe66">
   <path d="m800.44 596.77v103.38"/>
   <path d="m769.66 648.46c0-32.083 30.786-51.689 30.786-51.689s30.786 19.606 30.786 51.689-30.786 51.689-30.786 51.689-30.786-19.606-30.786-51.689z"/>
   <path d="m774.11 627.39 26.33 26.979 25.823-26.979"/>
   <path d="m769.66 647.65 30.786 32.407 30.279-32.407"/>
   <path d="m817.12 612.75-16.679 17.338-17.186-17.338"/>
  </g>
  <g fill="none" stroke="#634405">
   <path d="m800.44 596.77v103.38" stroke-width="2.8561"/>
   <path d="m769.66 648.46c0-32.083 30.786-51.689 30.786-51.689s30.786 19.606 30.786 51.689-30.786 51.689-30.786 51.689-30.786-19.606-30.786-51.689z" stroke-width="4.5222"/>
   <g stroke-width="2.8561">
    <path d="m774.11 627.39 26.33 26.979 25.823-26.979"/>
    <path d="m769.66 647.65 30.786 32.407 30.279-32.407"/>
    <path d="m817.12 612.75-16.679 17.338-17.186-17.338"/>
   </g>
  </g>
 </g>
 <g transform="matrix(.44643 -.41478 .41517 .44601 -151.79 209.06)" stroke-width="1.6411">
  <g fill="#edbe66">
   <path d="m800.44 596.77v103.38"/>
   <path d="m769.66 648.46c0-32.083 30.786-51.689 30.786-51.689s30.786 19.606 30.786 51.689-30.786 51.689-30.786 51.689-30.786-19.606-30.786-51.689z"/>
   <path d="m774.11 627.39 26.33 26.979 25.823-26.979"/>
   <path d="m769.66 647.65 30.786 32.407 30.279-32.407"/>
   <path d="m817.12 612.75-16.679 17.338-17.186-17.338"/>
  </g>
  <g fill="none" stroke="#634405">
   <path d="m800.44 596.77v103.38" stroke-width="3.9386"/>
   <path d="m769.66 648.46c0-32.083 30.786-51.689 30.786-51.689s30.786 19.606 30.786 51.689-30.786 51.689-30.786 51.689-30.786-19.606-30.786-51.689z" stroke-width="6.2361"/>
   <g stroke-width="3.9386">
    <path d="m774.11 627.39 26.33 26.979 25.823-26.979"/>
    <path d="m769.66 647.65 30.786 32.407 30.279-32.407"/>
    <path d="m817.12 612.75-16.679 17.338-17.186-17.338"/>
   </g>
  </g>
 </g>
 <g transform="matrix(.55102 -.22972 .23008 .55111 -81.265 13.622)" stroke-width="1.6748">
  <g fill="#edbe66">
   <path d="m800.44 596.77v103.38"/>
   <path d="m769.66 648.46c0-32.083 30.786-51.689 30.786-51.689s30.786 19.606 30.786 51.689-30.786 51.689-30.786 51.689-30.786-19.606-30.786-51.689z"/>
   <path d="m774.11 627.39 26.33 26.979 25.823-26.979"/>
   <path d="m769.66 647.65 30.786 32.407 30.279-32.407"/>
   <path d="m817.12 612.75-16.679 17.338-17.186-17.338"/>
  </g>
  <g fill="none" stroke="#634405">
   <path d="m800.44 596.77v103.38" stroke-width="4.0194"/>
   <path d="m769.66 648.46c0-32.083 30.786-51.689 30.786-51.689s30.786 19.606 30.786 51.689-30.786 51.689-30.786 51.689-30.786-19.606-30.786-51.689z" stroke-width="6.3641"/>
   <g stroke-width="4.0194">
    <path d="m774.11 627.39 26.33 26.979 25.823-26.979"/>
    <path d="m769.66 647.65 30.786 32.407 30.279-32.407"/>
    <path d="m817.12 612.75-16.679 17.338-17.186-17.338"/>
   </g>
  </g>
 </g>
 <g transform="matrix(.33907 -.49136 .49171 .33895 -95.772 380.69)" stroke-width="1.6748">
  <g fill="#edbe66">
   <path d="m800.44 596.77v103.38"/>
   <path d="m769.66 648.46c0-32.083 30.786-51.689 30.786-51.689s30.786 19.606 30.786 51.689-30.786 51.689-30.786 51.689-30.786-19.606-30.786-51.689z"/>
   <path d="m774.11 627.39 26.33 26.979 25.823-26.979"/>
   <path d="m769.66 647.65 30.786 32.407 30.279-32.407"/>
   <path d="m817.12 612.75-16.679 17.338-17.186-17.338"/>
  </g>
  <g fill="none" stroke="#634405">
   <path d="m800.44 596.77v103.38" stroke-width="4.0194"/>
   <path d="m769.66 648.46c0-32.083 30.786-51.689 30.786-51.689s30.786 19.606 30.786 51.689-30.786 51.689-30.786 51.689-30.786-19.606-30.786-51.689z" stroke-width="6.3641"/>
   <g stroke-width="4.0194">
    <path d="m774.11 627.39 26.33 26.979 25.823-26.979"/>
    <path d="m769.66 647.65 30.786 32.407 30.279-32.407"/>
    <path d="m817.12 612.75-16.679 17.338-17.186-17.338"/>
   </g>
  </g>
 </g>
 <g transform="matrix(.63366 -.079698 .080259 .63216 -24.489 -135.17)" stroke-width="1.5675">
  <g fill="#edbe66">
   <path d="m800.44 596.77v103.38"/>
   <path d="m769.66 648.46c0-32.083 30.786-51.689 30.786-51.689s30.786 19.606 30.786 51.689-30.786 51.689-30.786 51.689-30.786-19.606-30.786-51.689z"/>
   <path d="m774.11 627.39 26.33 26.979 25.823-26.979"/>
   <path d="m769.66 647.65 30.786 32.407 30.279-32.407"/>
   <path d="m817.12 612.75-16.679 17.338-17.186-17.338"/>
  </g>
  <g fill="none" stroke="#634405">
   <path d="m800.44 596.77v103.38" stroke-width="3.7621"/>
   <path d="m769.66 648.46c0-32.083 30.786-51.689 30.786-51.689s30.786 19.606 30.786 51.689-30.786 51.689-30.786 51.689-30.786-19.606-30.786-51.689z" stroke-width="5.9566"/>
   <g stroke-width="3.7621">
    <path d="m774.11 627.39 26.33 26.979 25.823-26.979"/>
    <path d="m769.66 647.65 30.786 32.407 30.279-32.407"/>
    <path d="m817.12 612.75-16.679 17.338-17.186-17.338"/>
   </g>
  </g>
 </g>
 <g transform="matrix(.61989 -.45473 .45461 .61999 -173.41 171.57)" stroke="#634405">
  <g fill="#c79224" stroke-width="1.6909">
   <rect x="695.59" y="586.77" width="2.9322" height="17.221" fill-rule="evenodd" stroke-dashoffset="1.29" stroke-linecap="round"/>
   <g>
    <path d="m692.82 578.73c-0.46396-6.342 0.0908-16.033 0.0908-16.033-12.042 6.9555-3.523 27.64 1.7028 27.257 3.5424-0.25914-1.3297-4.8829-1.7936-11.225z"/>
    <path d="m700.14 578.47c0.0881-6.3583-1.0388-15.999-1.0388-15.999 12.433 6.2311 5.1515 27.383-0.0878 27.31-3.5515-0.0492 1.0385-4.953 1.1266-11.311z"/>
    <path d="m694.43 578.33c0-6.3589 1.2603-15.983 1.2603-15.983-12.518 6.0583-5.5302 27.309-0.29048 27.309 3.5518 0-0.96985-4.9669-0.96985-11.326z"/>
    <path d="m697.07 562.34c5.6712 8.1017 2.9976 26.898 0 26.898s-5.6712-18.796 0-26.898z"/>
   </g>
  </g>
  <path d="m697.08 561.93a0.40714 0.40714 0 0 0-0.34961 0.17187c-0.2791 0.39871-0.51661 0.8443-0.75586 1.2871 0.0262-0.21846 0.11524-0.99805 0.11524-0.99805a0.40714 0.40714 0 0 0-0.58203-0.41601c-0.83337 0.40333-1.5537 0.89534-2.2246 1.4219 0.0105-0.20804 0.0332-0.68164 0.0332-0.68164a0.40714 0.40714 0 0 0-0.60938-0.37304c-3.1042 1.793-4.9019 4.4938-5.7383 7.4883-0.83634 2.9944-0.72963 6.2821-0.0801 9.3281 0.64956 3.046 1.8412 5.8512 3.2227 7.8984 0.69072 1.0236 1.4286 1.8592 2.1875 2.4394 0.75893 0.58029 1.5533 0.91721 2.3438 0.85938 0.45108-0.033 0.80569-0.14991 1.0898-0.34766 0.42675-0.0484 0.75969-0.2169 1.0078-0.46679 0.10704 0.0379 0.195 0.0996 0.32422 0.0996 0.15925 0 0.30477-0.0427 0.44336-0.10156 0.0881 0.13616 0.19602 0.26165 0.33593 0.35547 0.30591 0.20515 0.69238 0.28641 1.166 0.29297 0.79247 0.011 1.5658-0.36999 2.2891-0.99414 0.72328-0.62415 1.4101-1.5018 2.0391-2.5644 1.2579-2.1254 2.2837-4.9971 2.752-8.0762 0.46823-3.0791 0.37919-6.3669-0.63282-9.3066-1.012-2.9397-2.967-5.5305-6.1719-7.1367a0.40714 0.40714 0 0 0-0.58594 0.4082s0.16197 1.8101 0.23633 2.5352c-0.42507-1.0711-0.92343-2.0745-1.5371-2.9512a0.40714 0.40714 0 0 0-0.31836-0.17187z" fill="none" stroke-width="2.2112"/>
 </g>
 <g transform="matrix(.41298 -.48716 .48655 .4115 -123.85 368.62)" stroke-width="1.5675">
  <g fill="#edbe66">
   <path d="m800.44 596.77v103.38"/>
   <path d="m769.66 648.46c0-32.083 30.786-51.689 30.786-51.689s30.786 19.606 30.786 51.689-30.786 51.689-30.786 51.689-30.786-19.606-30.786-51.689z"/>
   <path d="m774.11 627.39 26.33 26.979 25.823-26.979"/>
   <path d="m769.66 647.65 30.786 32.407 30.279-32.407"/>
   <path d="m817.12 612.75-16.679 17.338-17.186-17.338"/>
  </g>
  <g fill="none" stroke="#634405">
   <path d="m800.44 596.77v103.38" stroke-width="3.7621"/>
   <path d="m769.66 648.46c0-32.083 30.786-51.689 30.786-51.689s30.786 19.606 30.786 51.689-30.786 51.689-30.786 51.689-30.786-19.606-30.786-51.689z" stroke-width="5.9566"/>
   <g stroke-width="3.7621">
    <path d="m774.11 627.39 26.33 26.979 25.823-26.979"/>
    <path d="m769.66 647.65 30.786 32.407 30.279-32.407"/>
    <path d="m817.12 612.75-16.679 17.338-17.186-17.338"/>
   </g>
  </g>
 </g>
 <g transform="matrix(.74671 .0079244 -.0070822 .7408 -31.929 -238.34)" stroke-width="1.3445">
  <g fill="#edbe66">
   <path d="m800.44 596.77v103.38"/>
   <path d="m769.66 648.46c0-32.083 30.786-51.689 30.786-51.689s30.786 19.606 30.786 51.689-30.786 51.689-30.786 51.689-30.786-19.606-30.786-51.689z"/>
   <path d="m774.11 627.39 26.33 26.979 25.823-26.979"/>
   <path d="m769.66 647.65 30.786 32.407 30.279-32.407"/>
   <path d="m817.12 612.75-16.679 17.338-17.186-17.338"/>
  </g>
  <g fill="none" stroke="#634405">
   <path d="m800.44 596.77v103.38" stroke-width="3.2267"/>
   <path d="m769.66 648.46c0-32.083 30.786-51.689 30.786-51.689s30.786 19.606 30.786 51.689-30.786 51.689-30.786 51.689-30.786-19.606-30.786-51.689z" stroke-width="5.109"/>
   <g stroke-width="3.2267">
    <path d="m774.11 627.39 26.33 26.979 25.823-26.979"/>
    <path d="m769.66 647.65 30.786 32.407 30.279-32.407"/>
    <path d="m817.12 612.75-16.679 17.338-17.186-17.338"/>
   </g>
  </g>
 </g>
 <g transform="matrix(.57911 -.48641 .48319 .57397 -222.68 315.17)" stroke-width="1.3275">
  <g fill="#edbe66">
   <path d="m800.44 596.77v103.38"/>
   <path d="m769.66 648.46c0-32.083 30.786-51.689 30.786-51.689s30.786 19.606 30.786 51.689-30.786 51.689-30.786 51.689-30.786-19.606-30.786-51.689z"/>
   <path d="m774.11 627.39 26.33 26.979 25.823-26.979"/>
   <path d="m769.66 647.65 30.786 32.407 30.279-32.407"/>
   <path d="m817.12 612.75-16.679 17.338-17.186-17.338"/>
  </g>
  <g fill="none" stroke="#634405">
   <path d="m800.44 596.77v103.38" stroke-width="3.1861"/>
   <path d="m769.66 648.46c0-32.083 30.786-51.689 30.786-51.689s30.786 19.606 30.786 51.689-30.786 51.689-30.786 51.689-30.786-19.606-30.786-51.689z" stroke-width="5.0447"/>
   <g stroke-width="3.1861">
    <path d="m774.11 627.39 26.33 26.979 25.823-26.979"/>
    <path d="m769.66 647.65 30.786 32.407 30.279-32.407"/>
    <path d="m817.12 612.75-16.679 17.338-17.186-17.338"/>
   </g>
  </g>
 </g>
 <g transform="matrix(.7418 .11939 -.11759 .7362 66.025 -286.26)" stroke-width="1.3361">
  <g fill="#edbe66">
   <path d="m800.44 596.77v103.38"/>
   <path d="m769.66 648.46c0-32.083 30.786-51.689 30.786-51.689s30.786 19.606 30.786 51.689-30.786 51.689-30.786 51.689-30.786-19.606-30.786-51.689z"/>
   <path d="m774.11 627.39 26.33 26.979 25.823-26.979"/>
   <path d="m769.66 647.65 30.786 32.407 30.279-32.407"/>
   <path d="m817.12 612.75-16.679 17.338-17.186-17.338"/>
  </g>
  <g fill="none" stroke="#634405">
   <path d="m800.44 596.77v103.38" stroke-width="3.2067"/>
   <path d="m769.66 648.46c0-32.083 30.786-51.689 30.786-51.689s30.786 19.606 30.786 51.689-30.786 51.689-30.786 51.689-30.786-19.606-30.786-51.689z" stroke-width="5.0773"/>
   <g stroke-width="3.2067">
    <path d="m774.11 627.39 26.33 26.979 25.823-26.979"/>
    <path d="m769.66 647.65 30.786 32.407 30.279-32.407"/>
    <path d="m817.12 612.75-16.679 17.338-17.186-17.338"/>
   </g>
  </g>
 </g>
 <g transform="matrix(.7763 .10836 -.10675 .76938 52.639 -259.3)" stroke-width="1.2816">
  <g fill="#edbe66">
   <path d="m800.44 596.77v103.38"/>
   <path d="m769.66 648.46c0-32.083 30.786-51.689 30.786-51.689s30.786 19.606 30.786 51.689-30.786 51.689-30.786 51.689-30.786-19.606-30.786-51.689z"/>
   <path d="m774.11 627.39 26.33 26.979 25.823-26.979"/>
   <path d="m769.66 647.65 30.786 32.407 30.279-32.407"/>
   <path d="m817.12 612.75-16.679 17.338-17.186-17.338"/>
  </g>
  <g fill="none" stroke="#634405">
   <path d="m800.44 596.77v103.38" stroke-width="3.0758"/>
   <path d="m769.66 648.46c0-32.083 30.786-51.689 30.786-51.689s30.786 19.606 30.786 51.689-30.786 51.689-30.786 51.689-30.786-19.606-30.786-51.689z" stroke-width="4.8701"/>
   <g stroke-width="3.0758">
    <path d="m774.11 627.39 26.33 26.979 25.823-26.979"/>
    <path d="m769.66 647.65 30.786 32.407 30.279-32.407"/>
    <path d="m817.12 612.75-16.679 17.338-17.186-17.338"/>
   </g>
  </g>
 </g>
 <g transform="matrix(.58371 -.52312 .51888 .57801 -231.21 391.8)" stroke-width="1.2816">
  <g fill="#edbe66">
   <path d="m800.44 596.77v103.38"/>
   <path d="m769.66 648.46c0-32.083 30.786-51.689 30.786-51.689s30.786 19.606 30.786 51.689-30.786 51.689-30.786 51.689-30.786-19.606-30.786-51.689z"/>
   <path d="m774.11 627.39 26.33 26.979 25.823-26.979"/>
   <path d="m769.66 647.65 30.786 32.407 30.279-32.407"/>
   <path d="m817.12 612.75-16.679 17.338-17.186-17.338"/>
  </g>
  <g fill="none" stroke="#634405">
   <path d="m800.44 596.77v103.38" stroke-width="3.0758"/>
   <path d="m769.66 648.46c0-32.083 30.786-51.689 30.786-51.689s30.786 19.606 30.786 51.689-30.786 51.689-30.786 51.689-30.786-19.606-30.786-51.689z" stroke-width="4.8701"/>
   <g stroke-width="3.0758">
    <path d="m774.11 627.39 26.33 26.979 25.823-26.979"/>
    <path d="m769.66 647.65 30.786 32.407 30.279-32.407"/>
    <path d="m817.12 612.75-16.679 17.338-17.186-17.338"/>
   </g>
  </g>
 </g>
 <g transform="matrix(.77916 .16812 -.16605 .77188 97.277 -264.57)" stroke-width="1.2605">
  <g fill="#edbe66">
   <path d="m800.44 596.77v103.38"/>
   <path d="m769.66 648.46c0-32.083 30.786-51.689 30.786-51.689s30.786 19.606 30.786 51.689-30.786 51.689-30.786 51.689-30.786-19.606-30.786-51.689z"/>
   <path d="m774.11 627.39 26.33 26.979 25.823-26.979"/>
   <path d="m769.66 647.65 30.786 32.407 30.279-32.407"/>
   <path d="m817.12 612.75-16.679 17.338-17.186-17.338"/>
  </g>
  <g fill="none" stroke="#634405">
   <path d="m800.44 596.77v103.38" stroke-width="3.0253"/>
   <path d="m769.66 648.46c0-32.083 30.786-51.689 30.786-51.689s30.786 19.606 30.786 51.689-30.786 51.689-30.786 51.689-30.786-19.606-30.786-51.689z" stroke-width="4.7901"/>
   <g stroke-width="3.0253">
    <path d="m774.11 627.39 26.33 26.979 25.823-26.979"/>
    <path d="m769.66 647.65 30.786 32.407 30.279-32.407"/>
    <path d="m817.12 612.75-16.679 17.338-17.186-17.338"/>
   </g>
  </g>
 </g>
 <g transform="matrix(.81252 -.18753 .18649 .80368 -195.38 33.129)" stroke-width="1.2056">
  <g fill="#edbe66">
   <path d="m800.44 596.77v103.38"/>
   <path d="m769.66 648.46c0-32.083 30.786-51.689 30.786-51.689s30.786 19.606 30.786 51.689-30.786 51.689-30.786 51.689-30.786-19.606-30.786-51.689z"/>
   <path d="m774.11 627.39 26.33 26.979 25.823-26.979"/>
   <path d="m769.66 647.65 30.786 32.407 30.279-32.407"/>
   <path d="m817.12 612.75-16.679 17.338-17.186-17.338"/>
  </g>
  <g fill="none" stroke="#634405">
   <path d="m800.44 596.77v103.38" stroke-width="2.8935"/>
   <path d="m769.66 648.46c0-32.083 30.786-51.689 30.786-51.689s30.786 19.606 30.786 51.689-30.786 51.689-30.786 51.689-30.786-19.606-30.786-51.689z" stroke-width="4.5814"/>
   <g stroke-width="2.8935">
    <path d="m774.11 627.39 26.33 26.979 25.823-26.979"/>
    <path d="m769.66 647.65 30.786 32.407 30.279-32.407"/>
    <path d="m817.12 612.75-16.679 17.338-17.186-17.338"/>
   </g>
  </g>
 </g>
 <g transform="matrix(.80264 .25156 -.248 .79425 132.77 -310.04)" stroke-width="1.1953">
  <g fill="#edbe66">
   <path d="m800.44 596.77v103.38"/>
   <path d="m769.66 648.46c0-32.083 30.786-51.689 30.786-51.689s30.786 19.606 30.786 51.689-30.786 51.689-30.786 51.689-30.786-19.606-30.786-51.689z"/>
   <path d="m774.11 627.39 26.33 26.979 25.823-26.979"/>
   <path d="m769.66 647.65 30.786 32.407 30.279-32.407"/>
   <path d="m817.12 612.75-16.679 17.338-17.186-17.338"/>
  </g>
  <g fill="none" stroke="#634405">
   <path d="m800.44 596.77v103.38" stroke-width="2.8688"/>
   <path d="m769.66 648.46c0-32.083 30.786-51.689 30.786-51.689s30.786 19.606 30.786 51.689-30.786 51.689-30.786 51.689-30.786-19.606-30.786-51.689z" stroke-width="4.5422"/>
   <g stroke-width="2.8688">
    <path d="m774.11 627.39 26.33 26.979 25.823-26.979"/>
    <path d="m769.66 647.65 30.786 32.407 30.279-32.407"/>
    <path d="m817.12 612.75-16.679 17.338-17.186-17.338"/>
   </g>
  </g>
 </g>
 <g transform="matrix(.81237 -.21812 .21661 .80337 -217.74 113.95)" stroke-width="1.1953">
  <g fill="#edbe66">
   <path d="m800.44 596.77v103.38"/>
   <path d="m769.66 648.46c0-32.083 30.786-51.689 30.786-51.689s30.786 19.606 30.786 51.689-30.786 51.689-30.786 51.689-30.786-19.606-30.786-51.689z"/>
   <path d="m774.11 627.39 26.33 26.979 25.823-26.979"/>
   <path d="m769.66 647.65 30.786 32.407 30.279-32.407"/>
   <path d="m817.12 612.75-16.679 17.338-17.186-17.338"/>
  </g>
  <g fill="none" stroke="#634405">
   <path d="m800.44 596.77v103.38" stroke-width="2.8688"/>
   <path d="m769.66 648.46c0-32.083 30.786-51.689 30.786-51.689s30.786 19.606 30.786 51.689-30.786 51.689-30.786 51.689-30.786-19.606-30.786-51.689z" stroke-width="4.5422"/>
   <g stroke-width="2.8688">
    <path d="m774.11 627.39 26.33 26.979 25.823-26.979"/>
    <path d="m769.66 647.65 30.786 32.407 30.279-32.407"/>
    <path d="m817.12 612.75-16.679 17.338-17.186-17.338"/>
   </g>
  </g>
 </g>
 <g>
  <path d="m587.64 424.49c-0.74141 4.7332-0.73377 8.8387 2.6283 12.806l2.0361-1.2295c-2.9028-3.4257-2.897-6.711-2.178-11.3z" color="#000000" color-rendering="auto" fill="#c79224" image-rendering="auto" shape-rendering="auto" stroke="#634405" stroke-width="1.4" style="font-feature-settings:normal;font-variant-alternates:normal;font-variant-caps:normal;font-variant-east-asian:normal;font-variant-ligatures:normal;font-variant-numeric:normal;font-variant-position:normal;font-variation-settings:normal;inline-size:0;isolation:auto;mix-blend-mode:normal;shape-margin:0;shape-padding:0;text-decoration-color:#000000;text-decoration-line:none;text-decoration-style:solid;text-indent:0;text-orientation:mixed;text-transform:none;white-space:normal"/>
  <path d="m591.38 395c-0.84536-0.0278-1.66 0.26028-2.4199 0.68359-0.66412-0.12348-1.2738 0.0852-1.6484 0.33594-0.81874 0.54797-1.2885 1.2596-1.9746 2.3809-0.98462 1.609-1.5416 3.537-1.9238 5.5586-0.14646-1.109-0.42835-2.3309-0.3711-3.2852 0.0769-1.2817-7e-3 -2.274-0.55468-3.1758-0.27383-0.4509-0.71998-0.87567-1.2734-1.0801s-1.1419-0.16852-1.6035-0.0215c-0.9233 0.29407-1.5001 0.9046-1.9707 1.6152s-0.80676 1.5713-0.92773 2.5391c-0.0944 0.75521-0.011 1.4725 0.125 2.4609 0.13596 0.98848 0.35344 2.1733 0.63867 3.4961 0.0287 0.1332 0.093 0.31337 0.12304 0.44922-0.38554-0.35532-0.7136-0.79282-1.2422-1.0078-0.46847-0.19054-1.097-0.29545-1.7188-0.10352-0.62171 0.19194-1.1018 0.64722-1.3926 1.1016-1.1406 1.7822-0.90132 3.9376-0.2168 5.9785 0.68453 2.0409 1.9174 4.0717 3.5293 5.6836 1.3761 1.376 3.3201 3.458 5.123 5.3027 0.90146 0.92236 1.7673 1.7865 2.5352 2.4922 0.7679 0.7057 1.341 1.2359 2.1074 1.6191 0.13738 0.0687 0.42799 0.0803 0.66016 0.12304 0.0231 0.1576 0.0536 0.35259 0.0723 0.49024a1.6264 1.6264 0 0 0 2.5898 1.0801c0.23399-0.17642 0.4669-0.55126 0.70117-0.76368a1.6264 1.6264 0 0 0 0.94532 0.20118c4.4925-0.41792 9.5838-3.5867 16.402-9.6875 1.5252-1.3647 2.4727-2.533 2.9609-3.7422s0.33904-2.6759-0.45117-3.5644c-0.65536-0.73694-1.4883-1.0127-2.3184-1.1504 1.135-2.0876 2.0355-4.0899 2.1992-5.8633 0.0666-0.72118 0.0876-1.2811-0.0703-1.9062-0.0789-0.31257-0.20852-0.67191-0.53711-1.0254-0.3286-0.35348-0.90917-0.61203-1.3887-0.62109-0.8543-0.0162-1.265 0.34333-1.6211 0.62891s-0.65439 0.60684-0.96094 0.9707c-0.36505 0.43331-0.73483 1.0087-1.1035 1.541-0.0439-0.85419-0.31888-1.6394-0.81836-2.3496 0.0526-1.2656-0.13803-2.5752-0.81641-3.752-0.79028-1.3708-2.3605-2.5117-4.2891-2.5117-1.3309 0-2.4536 0.38454-3.375 1.0293-0.90247-1.2831-2.2543-2.1021-3.7246-2.1504zm-3.4609 8.6797 0.91797 0.33008-0.91993 0.21679z" fill="#634405"/>
  <g fill="#c79224" stroke="#634405" stroke-width="1.4">
   <path d="m580.83 417.57c-3.8891-6.5407-4.7996-11.952-6.2138-9.7423-1.4142 2.2097 0.26517 6.8059 3.0936 9.6343 2.8284 2.8284 7.7515 8.3148 9.3425 9.1103 1.591 0.79549-6.2223-9.0023-6.2223-9.0023z"/>
   <path d="m595.47 404.82c-1.149-4.331-1.0607-7.0711 3.0052-7.0711 4.0659 0 4.4194 6.2756 2.2097 7.513-2.2097 1.2374-5.2149-0.44194-5.2149-0.44194z"/>
   <path d="m596.78 408.89c-0.0884-4.4194 0.63573-6.814 3.5525-6.7256 2.9168 0.0884 2.6128 3.3035 0.88389 5.8336-2.8133 4.1169-4.4364 0.89201-4.4364 0.89201z"/>
   <path d="m594.15 402.96c2.0329-5.8336-3.2704-7.955-5.4801-5.0381-2.2097 2.9168 0.88388 6.8943 1.8562 6.9827 0.97228 0.0884 3.6239-1.9445 3.6239-1.9445z"/>
   <path d="m588.49 406.76c0.70711-5.0381 1.8562-13.435-1.7678-7.513-3.6239 5.922-2.3865 17.589 1.0607 24.13 3.4471-0.97228 0.7071-16.617 0.7071-16.617z"/>
   <path d="m586.9 419.05c-4.2426-8.8388-5.7452-14.054-5.4801-18.473 0.26516-4.4194-3.5547-2.1109-3.5936 0.73928-0.10355 7.5784 6.5659 17.448 9.9228 23.801 2.778 5.2569-0.8491-6.0666-0.8491-6.0666z"/>
   <path d="m590.96 426.3c3.0052-4.5078 9.7227-12.109 11.137-14.672 1.4142-2.5633 6.8943-12.374 6.364-6.6291s-11.314 19.887-17.501 21.302z"/>
   <path d="m591.14 427.53c4.5962-2.3865 10.43-11.579 12.551-13.877 2.1213-2.2981 9.6343-1.4142 2.9168 4.5962-6.7175 6.0104-11.667 8.9272-15.468 9.2808z"/>
   <path d="m588.67 428.42c-1.1088-8.1746-5.118-26.536 5.3033-26.958 11.351-0.46049 0.092 22.891-5.3033 26.958z"/>
  </g>
 </g>
 <g transform="matrix(.74338 .576 -.56949 .73534 380.17 -478.84)" stroke-width="1.0692">
  <g fill="#edbe66">
   <path d="m800.44 596.77v103.38"/>
   <path d="m769.66 648.46c0-32.083 30.786-51.689 30.786-51.689s30.786 19.606 30.786 51.689-30.786 51.689-30.786 51.689-30.786-19.606-30.786-51.689z"/>
   <path d="m774.11 627.39 26.33 26.979 25.823-26.979"/>
   <path d="m769.66 647.65 30.786 32.407 30.279-32.407"/>
   <path d="m817.12 612.75-16.679 17.338-17.186-17.338"/>
  </g>
  <g fill="none" stroke="#634405">
   <path d="m800.44 596.77v103.38" stroke-width="2.5662"/>
   <path d="m769.66 648.46c0-32.083 30.786-51.689 30.786-51.689s30.786 19.606 30.786 51.689-30.786 51.689-30.786 51.689-30.786-19.606-30.786-51.689z" stroke-width="4.0632"/>
   <g stroke-width="2.5662">
    <path d="m774.11 627.39 26.33 26.979 25.823-26.979"/>
    <path d="m769.66 647.65 30.786 32.407 30.279-32.407"/>
    <path d="m817.12 612.75-16.679 17.338-17.186-17.338"/>
   </g>
  </g>
 </g>
 <g transform="matrix(1.0197 .024189 -.023739 1.0063 -247.41 -161.08)" stroke-width=".98689">
  <g fill="#edbe66">
   <path d="m800.44 596.77v103.38"/>
   <path d="m769.66 648.46c0-32.083 30.786-51.689 30.786-51.689s30.786 19.606 30.786 51.689-30.786 51.689-30.786 51.689-30.786-19.606-30.786-51.689z"/>
   <path d="m774.11 627.39 26.33 26.979 25.823-26.979"/>
   <path d="m769.66 647.65 30.786 32.407 30.279-32.407"/>
   <path d="m817.12 612.75-16.679 17.338-17.186-17.338"/>
  </g>
  <g fill="none" stroke="#634405">
   <path d="m800.44 596.77v103.38" stroke-width="2.3685"/>
   <path d="m769.66 648.46c0-32.083 30.786-51.689 30.786-51.689s30.786 19.606 30.786 51.689-30.786 51.689-30.786 51.689-30.786-19.606-30.786-51.689z" stroke-width="3.7502"/>
   <g stroke-width="2.3685">
    <path d="m774.11 627.39 26.33 26.979 25.823-26.979"/>
    <path d="m769.66 647.65 30.786 32.407 30.279-32.407"/>
    <path d="m817.12 612.75-16.679 17.338-17.186-17.338"/>
   </g>
  </g>
 </g>
 <g transform="rotate(51.877 658.28 471.94)" stroke="#634405">
  <g fill="#c79224" stroke-width="1.3">
   <rect x="695.59" y="586.77" width="2.9322" height="8.6282" fill-rule="evenodd" stroke-dashoffset="1.29" stroke-linecap="round"/>
   <g>
    <path d="m692.82 578.73c-0.46396-6.342 0.0908-16.033 0.0908-16.033-12.042 6.9555-3.523 27.64 1.7028 27.257 3.5424-0.25914-1.3297-4.8829-1.7936-11.225z"/>
    <path d="m700.14 578.47c0.0881-6.3583-1.0388-15.999-1.0388-15.999 12.433 6.2311 5.1515 27.383-0.0878 27.31-3.5515-0.0492 1.0385-4.953 1.1266-11.311z"/>
    <path d="m694.43 578.33c0-6.3589 1.2603-15.983 1.2603-15.983-12.518 6.0583-5.5302 27.309-0.29048 27.309 3.5518 0-0.96985-4.9669-0.96985-11.326z"/>
    <path d="m697.07 562.34c5.6712 8.1017 2.9976 26.898 0 26.898s-5.6712-18.796 0-26.898z"/>
   </g>
  </g>
  <path d="m697.08 561.93a0.40714 0.40714 0 0 0-0.34961 0.17187c-0.2791 0.39871-0.51661 0.8443-0.75586 1.2871 0.0262-0.21846 0.11524-0.99805 0.11524-0.99805a0.40714 0.40714 0 0 0-0.58203-0.41601c-0.83337 0.40333-1.5537 0.89534-2.2246 1.4219 0.0105-0.20804 0.0332-0.68164 0.0332-0.68164a0.40714 0.40714 0 0 0-0.60938-0.37304c-3.1042 1.793-4.9019 4.4938-5.7383 7.4883-0.83634 2.9944-0.72963 6.2821-0.0801 9.3281 0.64956 3.046 1.8412 5.8512 3.2227 7.8984 0.69072 1.0236 1.4286 1.8592 2.1875 2.4394 0.75893 0.58029 1.5533 0.91721 2.3438 0.85938 0.45108-0.033 0.80569-0.14991 1.0898-0.34766 0.42675-0.0484 0.75969-0.2169 1.0078-0.46679 0.10704 0.0379 0.195 0.0996 0.32422 0.0996 0.15925 0 0.30477-0.0427 0.44336-0.10156 0.0881 0.13616 0.19602 0.26165 0.33593 0.35547 0.30591 0.20515 0.69238 0.28641 1.166 0.29297 0.79247 0.011 1.5658-0.36999 2.2891-0.99414 0.72328-0.62415 1.4101-1.5018 2.0391-2.5644 1.2579-2.1254 2.2837-4.9971 2.752-8.0762 0.46823-3.0791 0.37919-6.3669-0.63282-9.3066-1.012-2.9397-2.967-5.5305-6.1719-7.1367a0.40714 0.40714 0 0 0-0.58594 0.4082s0.16197 1.8101 0.23633 2.5352c-0.42507-1.0711-0.92343-2.0745-1.5371-2.9512a0.40714 0.40714 0 0 0-0.31836-0.17187z" fill="none" stroke-width="1.7"/>
 </g>
 <g transform="matrix(.67784 .76215 -.7521 .66907 530.61 -513.3)" stroke-width=".98689">
  <g fill="#edbe66">
   <path d="m800.44 596.77v103.38"/>
   <path d="m769.66 648.46c0-32.083 30.786-51.689 30.786-51.689s30.786 19.606 30.786 51.689-30.786 51.689-30.786 51.689-30.786-19.606-30.786-51.689z"/>
   <path d="m774.11 627.39 26.33 26.979 25.823-26.979"/>
   <path d="m769.66 647.65 30.786 32.407 30.279-32.407"/>
   <path d="m817.12 612.75-16.679 17.338-17.186-17.338"/>
  </g>
  <g fill="none" stroke="#634405">
   <path d="m800.44 596.77v103.38" stroke-width="2.3685"/>
   <path d="m769.66 648.46c0-32.083 30.786-51.689 30.786-51.689s30.786 19.606 30.786 51.689-30.786 51.689-30.786 51.689-30.786-19.606-30.786-51.689z" stroke-width="3.7502"/>
   <g stroke-width="2.3685">
    <path d="m774.11 627.39 26.33 26.979 25.823-26.979"/>
    <path d="m769.66 647.65 30.786 32.407 30.279-32.407"/>
    <path d="m817.12 612.75-16.679 17.338-17.186-17.338"/>
   </g>
  </g>
 </g>
 <g transform="matrix(.7485 .62005 -.6117 .73898 303.55 -355.07)" stroke-width="1.0356">
  <g fill="#edbe66">
   <path d="m800.44 596.77v103.38"/>
   <path d="m769.66 648.46c0-32.083 30.786-51.689 30.786-51.689s30.786 19.606 30.786 51.689-30.786 51.689-30.786 51.689-30.786-19.606-30.786-51.689z"/>
   <path d="m774.11 627.39 26.33 26.979 25.823-26.979"/>
   <path d="m769.66 647.65 30.786 32.407 30.279-32.407"/>
   <path d="m817.12 612.75-16.679 17.338-17.186-17.338"/>
  </g>
  <g fill="none" stroke="#634405">
   <path d="m800.44 596.77v103.38" stroke-width="2.4855"/>
   <path d="m769.66 648.46c0-32.083 30.786-51.689 30.786-51.689s30.786 19.606 30.786 51.689-30.786 51.689-30.786 51.689-30.786-19.606-30.786-51.689z" stroke-width="3.9353"/>
   <g stroke-width="2.4855">
    <path d="m774.11 627.39 26.33 26.979 25.823-26.979"/>
    <path d="m769.66 647.65 30.786 32.407 30.279-32.407"/>
    <path d="m817.12 612.75-16.679 17.338-17.186-17.338"/>
   </g>
  </g>
 </g>
 <g transform="matrix(.7286 .49863 -.49136 .72001 149.88 -244.81)" stroke-width="1.1399">
  <g fill="#edbe66">
   <path d="m800.44 596.77v103.38"/>
   <path d="m769.66 648.46c0-32.083 30.786-51.689 30.786-51.689s30.786 19.606 30.786 51.689-30.786 51.689-30.786 51.689-30.786-19.606-30.786-51.689z"/>
   <path d="m774.11 627.39 26.33 26.979 25.823-26.979"/>
   <path d="m769.66 647.65 30.786 32.407 30.279-32.407"/>
   <path d="m817.12 612.75-16.679 17.338-17.186-17.338"/>
  </g>
  <g fill="none" stroke="#634405">
   <path d="m800.44 596.77v103.38" stroke-width="2.7358"/>
   <path d="m769.66 648.46c0-32.083 30.786-51.689 30.786-51.689s30.786 19.606 30.786 51.689-30.786 51.689-30.786 51.689-30.786-19.606-30.786-51.689z" stroke-width="4.3316"/>
   <g stroke-width="2.7358">
    <path d="m774.11 627.39 26.33 26.979 25.823-26.979"/>
    <path d="m769.66 647.65 30.786 32.407 30.279-32.407"/>
    <path d="m817.12 612.75-16.679 17.338-17.186-17.338"/>
   </g>
  </g>
 </g>
 <g transform="matrix(.61373 .63468 -.62584 .60678 353.98 -247.55)" stroke-width="1.1399">
  <g fill="#edbe66">
   <path d="m800.44 596.77v103.38"/>
   <path d="m769.66 648.46c0-32.083 30.786-51.689 30.786-51.689s30.786 19.606 30.786 51.689-30.786 51.689-30.786 51.689-30.786-19.606-30.786-51.689z"/>
   <path d="m774.11 627.39 26.33 26.979 25.823-26.979"/>
   <path d="m769.66 647.65 30.786 32.407 30.279-32.407"/>
   <path d="m817.12 612.75-16.679 17.338-17.186-17.338"/>
  </g>
  <g fill="none" stroke="#634405">
   <path d="m800.44 596.77v103.38" stroke-width="2.7358"/>
   <path d="m769.66 648.46c0-32.083 30.786-51.689 30.786-51.689s30.786 19.606 30.786 51.689-30.786 51.689-30.786 51.689-30.786-19.606-30.786-51.689z" stroke-width="4.3316"/>
   <g stroke-width="2.7358">
    <path d="m774.11 627.39 26.33 26.979 25.823-26.979"/>
    <path d="m769.66 647.65 30.786 32.407 30.279-32.407"/>
    <path d="m817.12 612.75-16.679 17.338-17.186-17.338"/>
   </g>
  </g>
 </g>
 <g transform="matrix(.98553 .24367 -.24011 .97008 -253.1 -176.35)" stroke-width=".99279">
  <g fill="#edbe66">
   <path d="m800.44 596.77v103.38"/>
   <path d="m769.66 648.46c0-32.083 30.786-51.689 30.786-51.689s30.786 19.606 30.786 51.689-30.786 51.689-30.786 51.689-30.786-19.606-30.786-51.689z"/>
   <path d="m774.11 627.39 26.33 26.979 25.823-26.979"/>
   <path d="m769.66 647.65 30.786 32.407 30.279-32.407"/>
   <path d="m817.12 612.75-16.679 17.338-17.186-17.338"/>
  </g>
  <g fill="none" stroke="#634405">
   <path d="m800.44 596.77v103.38" stroke-width="2.3827"/>
   <path d="m769.66 648.46c0-32.083 30.786-51.689 30.786-51.689s30.786 19.606 30.786 51.689-30.786 51.689-30.786 51.689-30.786-19.606-30.786-51.689z" stroke-width="3.7726"/>
   <g stroke-width="2.3827">
    <path d="m774.11 627.39 26.33 26.979 25.823-26.979"/>
    <path d="m769.66 647.65 30.786 32.407 30.279-32.407"/>
    <path d="m817.12 612.75-16.679 17.338-17.186-17.338"/>
   </g>
  </g>
 </g>
 <path d="m530.61 680.57h-103.38" fill="#edbe66"/>
 <g transform="translate(-230.63 17.607)">
  <path d="m688.66 577.64s-2.7733 6.0885 0.40625 11.596c0.94862 1.643 2.2091 2.8452 3.5078 3.7344-1.4196-0.6803-3.0908-1.1699-4.9883-1.1699-6.3592 0-10.246 5.4453-10.246 5.4453s3.887 5.4453 10.246 5.4453c1.9003 0 3.5732-0.49196 4.9941-1.1738-1.301 0.88963-2.5635 2.0945-3.5137 3.7402-3.1796 5.5072-0.40625 11.594-0.40625 11.594s6.6583-0.64126 9.8379-6.1484c0.94989-1.6453 1.3604-3.341 1.4805-4.9121 0.12008 1.5711 0.53253 3.2669 1.4824 4.9121 3.1796 5.5072 9.8379 6.1484 9.8379 6.1484s2.7714-6.0866-0.4082-11.594c-0.94764-1.6414-2.2046-2.8435-3.502-3.7324 1.4184 0.67892 3.0893 1.166 4.9844 1.166 6.3592 0 10.244-5.4453 10.244-5.4453s-3.885-5.4453-10.244-5.4453c-1.8961 0-3.5674 0.49042-4.9863 1.1699 1.2982-0.88912 2.5557-2.092 3.5039-3.7344 3.1796-5.5072 0.4082-11.596 0.4082-11.596s-6.6583 0.64321-9.8379 6.1504c-0.94989 1.6453-1.3623 3.339-1.4824 4.9102-0.12008-1.5711-0.53058-3.2649-1.4805-4.9102-3.1796-5.5072-9.8379-6.1504-9.8379-6.1504zm11.318 13.201c0.20852 2.6406 1.0742 4.5449 1.0742 4.5449s2.0838-0.20434 4.4766-1.3457c-2.1845 1.5014-3.4023 3.2051-3.4023 3.2051s1.2189 1.7034 3.4043 3.2051c-2.3934-1.1421-4.4785-1.3438-4.4785-1.3438s-0.86571 1.9043-1.0742 4.5449c-0.20855-2.6405-1.0742-4.5449-1.0742-4.5449s-2.0851 0.20169-4.4785 1.3438c2.1854-1.5016 3.4043-3.2051 3.4043-3.2051s-1.2157-1.7008-3.3965-3.2012c2.3903 1.139 4.4707 1.3418 4.4707 1.3418s0.86568-1.9044 1.0742-4.5449z" fill="#c79224"/>
  <g fill="none" stroke="#634405" stroke-width="2.4">
   <path d="m712.37 591.8c6.3592 0 10.245 5.445 10.245 5.445s-3.8862 5.445-10.245 5.445-10.245-5.445-10.245-5.445 3.8862-5.445 10.245-5.445z"/>
   <path d="m710.89 605.26c3.1796 5.5072 0.40713 11.595 0.40713 11.595s-6.6586-0.643-9.8382-6.1502c-3.1796-5.5072-0.40713-11.595-0.40713-11.595s6.6586 0.643 9.8382 6.1502z"/>
   <path d="m698.49 610.7c-3.1796 5.5072-9.8382 6.1502-9.8382 6.1502s-2.7724-6.088 0.40714-11.595c3.1796-5.5072 9.8382-6.1502 9.8382-6.1502s2.7724 6.088-0.40712 11.595z"/>
   <path d="m687.58 602.69c-6.3591-1e-5 -10.245-5.445-10.245-5.445s3.8862-5.445 10.245-5.445c6.3591 0 10.245 5.445 10.245 5.445s-3.8861 5.445-10.245 5.445z"/>
   <path d="m689.06 589.23c-3.1796-5.5072-0.40713-11.595-0.40713-11.595s6.6586 0.643 9.8382 6.1502c3.1796 5.5072 0.40713 11.595 0.40713 11.595s-6.6586-0.64298-9.8382-6.1502z"/>
   <path d="m701.46 583.79c3.1796-5.5072 9.8382-6.1502 9.8382-6.1502s2.7724 6.088-0.40714 11.595c-3.1796 5.5072-9.8382 6.1502-9.8382 6.1502s-2.7724-6.088 0.40713-11.595z"/>
  </g>
  <circle cx="699.97" cy="597.24" r="5.7287" fill="#edbe66" fill-rule="evenodd" stroke="#634405" stroke-dashoffset="1.29" stroke-linecap="round" stroke-width="2.4"/>
 </g>
 <g transform="rotate(16.583 409.64 -383.42)">
  <path d="m688.66 577.64s-2.7733 6.0885 0.40625 11.596c0.94862 1.643 2.2091 2.8452 3.5078 3.7344-1.4196-0.6803-3.0908-1.1699-4.9883-1.1699-6.3592 0-10.246 5.4453-10.246 5.4453s3.887 5.4453 10.246 5.4453c1.9003 0 3.5732-0.49196 4.9941-1.1738-1.301 0.88963-2.5635 2.0945-3.5137 3.7402-3.1796 5.5072-0.40625 11.594-0.40625 11.594s6.6583-0.64126 9.8379-6.1484c0.94989-1.6453 1.3604-3.341 1.4805-4.9121 0.12008 1.5711 0.53253 3.2669 1.4824 4.9121 3.1796 5.5072 9.8379 6.1484 9.8379 6.1484s2.7714-6.0866-0.4082-11.594c-0.94764-1.6414-2.2046-2.8435-3.502-3.7324 1.4184 0.67892 3.0893 1.166 4.9844 1.166 6.3592 0 10.244-5.4453 10.244-5.4453s-3.885-5.4453-10.244-5.4453c-1.8961 0-3.5674 0.49042-4.9863 1.1699 1.2982-0.88912 2.5557-2.092 3.5039-3.7344 3.1796-5.5072 0.4082-11.596 0.4082-11.596s-6.6583 0.64321-9.8379 6.1504c-0.94989 1.6453-1.3623 3.339-1.4824 4.9102-0.12008-1.5711-0.53058-3.2649-1.4805-4.9102-3.1796-5.5072-9.8379-6.1504-9.8379-6.1504zm11.318 13.201c0.20852 2.6406 1.0742 4.5449 1.0742 4.5449s2.0838-0.20434 4.4766-1.3457c-2.1845 1.5014-3.4023 3.2051-3.4023 3.2051s1.2189 1.7034 3.4043 3.2051c-2.3934-1.1421-4.4785-1.3438-4.4785-1.3438s-0.86571 1.9043-1.0742 4.5449c-0.20855-2.6405-1.0742-4.5449-1.0742-4.5449s-2.0851 0.20169-4.4785 1.3438c2.1854-1.5016 3.4043-3.2051 3.4043-3.2051s-1.2157-1.7008-3.3965-3.2012c2.3903 1.139 4.4707 1.3418 4.4707 1.3418s0.86568-1.9044 1.0742-4.5449z" fill="#c79224"/>
  <g fill="none" stroke="#634405" stroke-width="2.4">
   <path d="m712.37 591.8c6.3592 0 10.245 5.445 10.245 5.445s-3.8862 5.445-10.245 5.445-10.245-5.445-10.245-5.445 3.8862-5.445 10.245-5.445z"/>
   <path d="m710.89 605.26c3.1796 5.5072 0.40713 11.595 0.40713 11.595s-6.6586-0.643-9.8382-6.1502c-3.1796-5.5072-0.40713-11.595-0.40713-11.595s6.6586 0.643 9.8382 6.1502z"/>
   <path d="m698.49 610.7c-3.1796 5.5072-9.8382 6.1502-9.8382 6.1502s-2.7724-6.088 0.40714-11.595c3.1796-5.5072 9.8382-6.1502 9.8382-6.1502s2.7724 6.088-0.40712 11.595z"/>
   <path d="m687.58 602.69c-6.3591-1e-5 -10.245-5.445-10.245-5.445s3.8862-5.445 10.245-5.445c6.3591 0 10.245 5.445 10.245 5.445s-3.8861 5.445-10.245 5.445z"/>
   <path d="m689.06 589.23c-3.1796-5.5072-0.40713-11.595-0.40713-11.595s6.6586 0.643 9.8382 6.1502c3.1796 5.5072 0.40713 11.595 0.40713 11.595s-6.6586-0.64298-9.8382-6.1502z"/>
   <path d="m701.46 583.79c3.1796-5.5072 9.8382-6.1502 9.8382-6.1502s2.7724 6.088-0.40714 11.595c-3.1796 5.5072-9.8382 6.1502-9.8382 6.1502s-2.7724-6.088 0.40713-11.595z"/>
  </g>
  <circle cx="699.97" cy="597.24" r="5.7287" fill="#edbe66" fill-rule="evenodd" stroke="#634405" stroke-dashoffset="1.29" stroke-linecap="round" stroke-width="2.4"/>
 </g>
 <g transform="rotate(16.583 929.15 123.17)">
  <path d="m688.66 577.64s-2.7733 6.0885 0.40625 11.596c0.94862 1.643 2.2091 2.8452 3.5078 3.7344-1.4196-0.6803-3.0908-1.1699-4.9883-1.1699-6.3592 0-10.246 5.4453-10.246 5.4453s3.887 5.4453 10.246 5.4453c1.9003 0 3.5732-0.49196 4.9941-1.1738-1.301 0.88963-2.5635 2.0945-3.5137 3.7402-3.1796 5.5072-0.40625 11.594-0.40625 11.594s6.6583-0.64126 9.8379-6.1484c0.94989-1.6453 1.3604-3.341 1.4805-4.9121 0.12008 1.5711 0.53253 3.2669 1.4824 4.9121 3.1796 5.5072 9.8379 6.1484 9.8379 6.1484s2.7714-6.0866-0.4082-11.594c-0.94764-1.6414-2.2046-2.8435-3.502-3.7324 1.4184 0.67892 3.0893 1.166 4.9844 1.166 6.3592 0 10.244-5.4453 10.244-5.4453s-3.885-5.4453-10.244-5.4453c-1.8961 0-3.5674 0.49042-4.9863 1.1699 1.2982-0.88912 2.5557-2.092 3.5039-3.7344 3.1796-5.5072 0.4082-11.596 0.4082-11.596s-6.6583 0.64321-9.8379 6.1504c-0.94989 1.6453-1.3623 3.339-1.4824 4.9102-0.12008-1.5711-0.53058-3.2649-1.4805-4.9102-3.1796-5.5072-9.8379-6.1504-9.8379-6.1504zm11.318 13.201c0.20852 2.6406 1.0742 4.5449 1.0742 4.5449s2.0838-0.20434 4.4766-1.3457c-2.1845 1.5014-3.4023 3.2051-3.4023 3.2051s1.2189 1.7034 3.4043 3.2051c-2.3934-1.1421-4.4785-1.3438-4.4785-1.3438s-0.86571 1.9043-1.0742 4.5449c-0.20855-2.6405-1.0742-4.5449-1.0742-4.5449s-2.0851 0.20169-4.4785 1.3438c2.1854-1.5016 3.4043-3.2051 3.4043-3.2051s-1.2157-1.7008-3.3965-3.2012c2.3903 1.139 4.4707 1.3418 4.4707 1.3418s0.86568-1.9044 1.0742-4.5449z" fill="#c79224"/>
  <g fill="none" stroke="#634405" stroke-width="2.4">
   <path d="m712.37 591.8c6.3592 0 10.245 5.445 10.245 5.445s-3.8862 5.445-10.245 5.445-10.245-5.445-10.245-5.445 3.8862-5.445 10.245-5.445z"/>
   <path d="m710.89 605.26c3.1796 5.5072 0.40713 11.595 0.40713 11.595s-6.6586-0.643-9.8382-6.1502c-3.1796-5.5072-0.40713-11.595-0.40713-11.595s6.6586 0.643 9.8382 6.1502z"/>
   <path d="m698.49 610.7c-3.1796 5.5072-9.8382 6.1502-9.8382 6.1502s-2.7724-6.088 0.40714-11.595c3.1796-5.5072 9.8382-6.1502 9.8382-6.1502s2.7724 6.088-0.40712 11.595z"/>
   <path d="m687.58 602.69c-6.3591-1e-5 -10.245-5.445-10.245-5.445s3.8862-5.445 10.245-5.445c6.3591 0 10.245 5.445 10.245 5.445s-3.8861 5.445-10.245 5.445z"/>
   <path d="m689.06 589.23c-3.1796-5.5072-0.40713-11.595-0.40713-11.595s6.6586 0.643 9.8382 6.1502c3.1796 5.5072 0.40713 11.595 0.40713 11.595s-6.6586-0.64298-9.8382-6.1502z"/>
   <path d="m701.46 583.79c3.1796-5.5072 9.8382-6.1502 9.8382-6.1502s2.7724 6.088-0.40714 11.595c-3.1796 5.5072-9.8382 6.1502-9.8382 6.1502s-2.7724-6.088 0.40713-11.595z"/>
  </g>
  <circle cx="699.97" cy="597.24" r="5.7287" fill="#edbe66" fill-rule="evenodd" stroke="#634405" stroke-dashoffset="1.29" stroke-linecap="round" stroke-width="2.4"/>
 </g>
 <g fill="#c79224" stroke="#634405" stroke-width="1.3">
  <path d="m557.69 292.57c-1.8332-1.1458-4.7549-7.1609-1.0312-5.786 3.7237 1.3749 1.8332 5.6714 1.0312 5.786z"/>
  <path d="m557.15 290.85c-2.8356-5.2661-0.081-12.963 7.4535-7.2105 7.5346 5.7522-5.8332 8.5067-7.4535 7.2105z"/>
  <path d="m572.14 283.89c-3.2407-5.3471-7.2915-6.2383-8.7498-3.4837-1.4583 2.7546 3.2407 8.5878 3.2407 8.5878l7.1295-1.7014z"/>
  <path d="m578.01 313.45c-0.80202-10.369 0.80202-22.743-2.7498-28.472-3.5518-5.7287-8.5931-8.0202-6.5308-4.2393 2.0623 3.781 7.4474 14.895 7.1036 19.707-0.34372 4.8121 2.1769 13.004 2.1769 13.004z"/>
  <path d="m562.83 290.94c-3.6458-3.4837-4.9247-3.3159-6.059-1.6956-0.8004 1.1434 0.49931 4.9492 1.9818 6.6217 2.1147 2.3857 4.5122 3.9006 5.3849 4.9914 1.9444 2.4305 3.2292 2.9641 4.7685 4.9085 1.5393 1.9444-6.0762-14.826-6.0762-14.826z"/>
  <path d="m576.4 314.02 1.604-0.57287s-1.604-10.025-1.4895-13.119c0.11457-3.0935-4.1247-16.04-10.312-16.04-6.187 0-6.6453 8.364-3.4372 13.176s4.9198 9.3483 7.7554 11.131c2.8356 1.7824 5.1956 4.2074 5.879 5.4254z"/>
  <path d="m579.6 317.91-1.604 0.57287-1.5933-4.4612 1.604-0.57287z"/>
 </g>
 <g transform="rotate(35.51 324.05 275.02)">
  <path transform="matrix(.98285 0 0 .9828 5.577 .80877)" d="m325.12 10.96 16.174 50.153 52.696-0.11518-42.7 30.881 16.394 50.081-42.564-31.067-42.564 31.067 16.394-50.081-42.7-30.881 52.696 0.11518z" fill="#c79224" fill-rule="evenodd"/>
  <g fill="#edbe66">
   <path d="m325.12 11.58v71.795l15.897-22.505z"/>
   <path d="m392.81 60.757-67.689 22.618 25.722 7.732z"/>
   <path d="m366.96 140.33-41.834-56.952v26.419z"/>
   <path d="m299.4 91.107-16.112 49.22 41.834-56.952z"/>
   <path d="m257.44 60.757 67.689 22.618-15.897-22.505z"/>
  </g>
  <path transform="matrix(.98285 0 0 .9828 5.577 .80877)" d="m325.12 10.96 16.174 50.153 52.696-0.11518-42.7 30.881 16.394 50.081-42.564-31.067-42.564 31.067 16.394-50.081-42.7-30.881 52.696 0.11518z" fill="none" stroke="#634405" stroke-dashoffset="1.29" stroke-linecap="round" stroke-linejoin="round" stroke-width="3.8664"/>
 </g>
 <path d="m504.38 695.25 25.625-25.25h44l11.625-48.375-21.25-29-83.375 46.5-32 49.625z" fill="#0a2f4c" stroke="#916823" stroke-linejoin="round" stroke-width="4"/>
 <path d="m483.88 747.88 20.5-52.625s-85.625-29-179.25-29-179.25 29-179.25 29l20.5 52.625s65.202-25.61 158.75-25.61 158.75 25.61 158.75 25.61z" fill="#0a2f4c" stroke="#916823" stroke-width="4"/>
 <g fill="none">
  <g stroke="#916823">
   <g>
    <path d="m325.12 674.87c-78.302 0-147.99 19.796-167.84 25.914l14.121 36.25c18.054-6.1736 74.925-23.395 153.72-23.395s135.66 17.221 153.72 23.395l14.121-36.25c-19.844-6.1183-89.536-25.914-167.84-25.914z" stroke-width="2"/>
    <g stroke-width="2.8">
     <path d="m481 639.12 23.375 56.125"/>
     <path d="m574 670-20.125-36.125 10.5-41.25"/>
     <path d="m553.88 633.88-35.75 1.375"/>
    </g>
   </g>
   <path d="m530 670-11.875-34.75 18.625-19.75 11.25 18.625" stroke-linejoin="round" stroke-width="2.8"/>
  </g>
  <path d="m409.12 764c-5.375-9.75 8.875-16.75 30.5-16" stroke="#634405" stroke-width="2.3"/>
  <path d="m241.12 764c5.375-9.75-8.875-16.75-30.5-16" stroke="#634405" stroke-width="2.3"/>
 </g>
 <g fill="#edbe66">
  <path d="m176.46 730.47-7.8096-27.547 8.9256-2.5304q5.0735-1.4383 6.7315-1.4618 2.5434-0.0511 4.732 1.5818 2.1832 1.6142 3.1154 4.9026 0.71917 2.5367 0.28852 4.5265-0.43064 1.9898-1.5764 3.3906-1.1323 1.3767-2.5074 2.1116-1.88 0.95928-5.6569 2.03l-3.6266 1.0282 2.9459 10.391zm-0.92645-24.464 2.2161 7.8169 3.0441-0.863q3.2884-0.93226 4.2745-1.6788 0.98612-0.74649 1.3452-1.843 0.37785-1.1019 0.0316-2.3233-0.42617-1.5033-1.5864-2.23-1.1602-0.72674-2.5824-0.58746-1.0492 0.0944-4.0557 0.94678z"/>
  <path d="m208.16 721.98-5.7256-28.055 5.6645-1.156 2.2535 11.042 11.099-2.2652-2.2535-11.042 5.6645-1.156 5.7256 28.055-5.6645 1.156-2.5035-12.267-11.099 2.2652 2.5035 12.267z"/>
  <path d="m242.35 715.54-4.2912-28.309 5.716-0.86643 4.2912 28.309z"/>
  <path d="m259.73 713.03-2.9914-28.24 5.7491-0.60897 2.4832 23.443 14.295-1.5142 0.50816 4.7974z"/>
  <path d="m289.82 710.25-1.7444-28.58 5.7705-0.35222 1.7444 28.58z"/>
  <path d="m307.19 709.29-0.39825-28.63 9.2764-0.12904q5.2729-0.0733 6.8803 0.33403 2.4697 0.61024 4.1598 2.7549 1.6899 2.1251 1.7374 5.5428 0.0367 2.6365-0.89527 4.4465-0.93195 1.81-2.4018 2.8657-1.4506 1.0359-2.9692 1.3891-2.0644 0.43891-5.9898 0.49352l-3.7692 0.0524 0.15022 10.8zm5.4498-23.867 0.11301 8.1242 3.1638-0.044q3.4176-0.0475 4.5636-0.51275 1.146-0.4652 1.7771-1.4311 0.65069-0.96618 0.63303-2.2356-0.0217-1.5623-0.95373-2.5651-0.93201-1.0028-2.3417-1.2371-1.0378-0.1809-4.1625-0.13743z"/>
  <path d="m339.98 709.22 1.5412-28.591 9.2639 0.49938q5.2658 0.28386 6.8419 0.79913 2.4227 0.77606 3.9637 3.0302 1.5421 2.2347 1.3581 5.6477-0.14193 2.6329-1.1943 4.3756-1.0524 1.7428-2.5903 2.6965-1.5174 0.93531-3.0565 1.1848-2.0894 0.29812-6.0095 0.0868l-3.7641-0.20291-0.58138 10.785zm7.0534-23.443-0.43735 8.1132 3.1595 0.17031q3.413 0.18399 4.5879-0.20255 1.1749-0.38654 1.87-1.3075 0.71461-0.9199 0.78295-2.1876 0.0841-1.5602-0.77786-2.6238-0.86197-1.0636-2.2525-1.3928-1.0231-0.25075-4.1436-0.41896z"/>
  <path d="m372.52 711.47 2.9574-28.48 5.7503 0.59712-2.9574 28.48z"/>
  <path d="m389.88 713.35 4.329-28.304 5.5603 0.85045 8.6931 20.673 2.8909-18.901 5.3094 0.81205-4.329 28.304-5.7341-0.87702-8.5873-20.202-2.823 18.457z"/>
  <path d="m424.35 719.03 6.0215-27.992 20.756 4.4648-1.0186 4.7354-15.104-3.249-1.3349 6.2057 14.054 3.0231-1.0146 4.7163-14.054-3.0231-1.6389 7.6187 15.638 3.364-1.0145 4.7163z"/>
  <path d="m457.43 716.88 5.565 0.98483q-0.27191 2.8643 0.8574 4.5582 1.1481 1.6992 3.6879 2.4077 2.6902 0.75054 4.3597-3.3e-4 1.6935-0.76444 2.1186-2.2883 0.27293-0.97826-0.12132-1.8182-0.37019-0.85353-1.6582-1.7604-0.88379-0.61155-4.1227-2.4479-4.1678-2.3591-5.5224-4.4809-1.9047-2.9849-0.99141-6.2583 0.58784-2.107 2.2822-3.6012 1.7184-1.5078 4.2248-1.8426 2.5252-0.32963 5.7046 0.55738 5.1923 1.4486 7.1722 4.4545 1.9987 3.0112 1.0702 6.8481l-5.6368-1.309q0.23565-2.2256-0.69238-3.4781-0.90397-1.266-3.2556-1.9221-2.4268-0.67707-4.0784-0.0631-1.0627 0.39296-1.3618 1.4653-0.27292 0.97827 0.36065 1.9053 0.80683 1.1781 4.6027 3.2713 3.7959 2.0932 5.445 3.6685 1.6731 1.5617 2.2656 3.6534 0.61659 2.0781-0.11296 4.693-0.66132 2.3704-2.5556 4.0724t-4.5857 2.0461q-2.6862 0.32526-6.2795-0.67721-5.23-1.4591-7.3613-4.6492-2.126-3.2089-1.3805-7.9891z"/>
 </g>
 <path transform="matrix(1.0065 0 0 1.0065 -2.112 3.5596)" d="m325.13 103.94 96.698 271.98 187.19 219.73-283.89-52.245-283.89 52.245 187.19-219.73z" fill="#eaeeef" fill-rule="evenodd"/>
 <g fill="#99a4a6">
  <path d="m325.12 438.13 4e-5 -329.95-97.326 273.75z"/>
  <path d="m325.12 438.13 285.73 164.97-188.41-221.16z"/>
  <path d="m325.12 438.13-285.73 164.97 285.73-52.586z"/>
 </g>
 <g fill="none" stroke="#626465">
  <path transform="matrix(1.0065 0 0 1.0065 -2.112 3.5596)" d="m325.13 103.94 96.698 271.98 187.19 219.73-283.89-52.245-283.89 52.245 187.19-219.73z" stroke-dashoffset="1.29" stroke-linecap="round" stroke-linejoin="round" stroke-width="4.9677"/>
  <g stroke-width="3.8">
   <path d="m325.12 438.13 4e-5 -329.95"/>
   <path d="m325.12 438.13 285.73 164.97"/>
   <path d="m325.12 438.13-285.73 164.97"/>
   <path d="m422.45 381.93-97.326 56.197"/>
   <path d="m227.8 381.93 97.326 56.318"/>
   <path d="m325.12 550.51-3e-5 -112.38"/>
  </g>
 </g>
 <g>
  <g fill="#edbe66" stroke="#634405" stroke-linejoin="round" stroke-width="3.8">
   <g>
    <path d="m343.75 261.88-18.625-18.25-18.625 18.25 18.625 176.38z"/>
    <path d="m350.75 269-25.625 169.25 44.375-150.75z"/>
    <path d="m299.5 269 25.625 169.25-44.375-150.75z"/>
    <path d="m458.14 324.33-0.26517-26.075-26.075-0.26516-111.55 137.89z"/>
    <path d="m458.05 334.32-137.8 101.56 137.97-75.218z"/>
    <path d="m421.81 298.08-101.56 137.8 75.218-137.97z"/>
    <path d="m494.65 449.77 18.25-18.625-18.25-18.625-176.38 18.625z"/>
    <path d="m487.52 456.77-169.25-25.625 150.75 44.375z"/>
    <path d="m487.52 405.52-169.25 25.625 150.75-44.375z"/>
    <path d="m343.75 600.41-18.625 18.25-18.625-18.25 18.625-176.38z"/>
    <path d="m350.75 593.28-25.625-169.25 44.375 150.75z"/>
    <path d="m299.5 593.28 25.625-169.25-44.375 150.75z"/>
    <path d="m458.14 537.95-0.26517 26.075-26.075 0.26516-111.55-137.89z"/>
    <path d="m458.05 527.97-137.8-101.56 137.97 75.218z"/>
    <path d="m421.81 564.21-101.56-137.8 75.218 137.97z"/>
    <path d="m155.6 449.77-18.25-18.625 18.25-18.625 176.38 18.625z"/>
    <path d="m162.73 456.77 169.25-25.625-150.75 44.375z"/>
    <path d="m162.73 405.52 169.25 25.625-150.75-44.375z"/>
    <path d="m192.11 324.33 0.26517-26.075 26.075-0.26516 111.55 137.89z"/>
    <path d="m192.2 334.32 137.8 101.56-137.97-75.218z"/>
    <path d="m228.44 298.08 101.56 137.8-75.218-137.97z"/>
    <path d="m192.11 537.95 0.26516 26.075 26.075 0.26517 111.55-137.89z"/>
    <path d="m192.2 527.97 137.8-101.56-137.97 75.218z"/>
    <path d="m228.44 564.21 101.56-137.8-75.218 137.97z"/>
   </g>
   <circle cx="325.12" cy="431.14" r="94.243" fill-rule="evenodd" stroke-dashoffset="1.29" stroke-linecap="round"/>
  </g>
  <path d="m330.75 421.5c0-16.375 41.25 6.875 50.5-26.125-20.909 9.9835-37.332 3.204-55.865-0.8844-17.958-3.9615-52.051-2.2315-55.01 19.009 20.5-11.25 49.75-7.0625 49.75 8v18.7c0 14.783-50.375-12.263-57.25 24.362 24.812-11.312 33.169-2.6513 62.25 1.4209 27.404 3.8374 60.166 0.0392 64.579-20.948-11.549 10.917-58.954 10.249-58.954-4.8353z" fill="#0a2f4c"/>
 </g>
 <g>
  <path transform="matrix(.98285 0 0 .9828 5.577 .80877)" d="m325.12 10.96 16.174 50.153 52.696-0.11518-42.7 30.881 16.394 50.081-42.564-31.067-42.564 31.067 16.394-50.081-42.7-30.881 52.696 0.11518z" fill="#c79224" fill-rule="evenodd"/>
  <g fill="#edbe66">
   <path d="m325.12 11.58v71.795l15.897-22.505z"/>
   <path d="m392.81 60.757-67.689 22.618 25.722 7.732z"/>
   <path d="m366.96 140.33-41.834-56.952v26.419z"/>
   <path d="m299.4 91.107-16.112 49.22 41.834-56.952z"/>
   <path d="m257.44 60.757 67.689 22.618-15.897-22.505z"/>
  </g>
  <path transform="matrix(.98285 0 0 .9828 5.577 .80877)" d="m325.12 10.96 16.174 50.153 52.696-0.11518-42.7 30.881 16.394 50.081-42.564-31.067-42.564 31.067 16.394-50.081-42.7-30.881 52.696 0.11518z" fill="none" stroke="#634405" stroke-dashoffset="1.29" stroke-linecap="round" stroke-linejoin="round" stroke-width="3.8664"/>
 </g>
</svg>
